<svg width="15" height="17" viewBox="0 0 15 17" fill="none" xmlns="http://www.w3.org/2000/svg">
<path d="M14.2539 9.60583L8.34766 15.7933C8.17188 15.9691 7.96094 16.0394 7.75 16.0394C7.50391 16.0394 7.29297 15.9691 7.11719 15.7933L1.21094 9.60583C0.894531 9.25427 0.894531 8.72693 1.24609 8.41052C1.5625 8.09412 2.125 8.09412 2.44141 8.44568L6.90625 13.1215V1.16833C6.90625 0.676147 7.25781 0.324585 7.71484 0.324585C8.13672 0.324585 8.59375 0.676147 8.59375 1.16833V13.1215L13.0234 8.44568C13.3398 8.09412 13.9023 8.09412 14.2188 8.41052C14.5703 8.72693 14.5703 9.25427 14.2539 9.60583Z" fill="white"/>
</svg>
