<svg width="19" height="26" viewBox="0 0 19 26" fill="none" xmlns="http://www.w3.org/2000/svg">
<path d="M15.3594 3.0238L11.75 11.4613H17C17.6094 11.4613 18.1719 11.8363 18.4062 12.3988C18.5938 13.0082 18.4531 13.6644 17.9844 14.0863L5.98438 24.5863C5.42188 25.0082 4.67188 25.0551 4.10938 24.6332C3.54688 24.2582 3.3125 23.5082 3.59375 22.8519L7.20312 14.4144H2C1.34375 14.4144 0.78125 14.0394 0.59375 13.4769C0.359375 12.8676 0.5 12.2113 0.96875 11.7894L12.9688 1.28943C13.5312 0.867554 14.2812 0.820679 14.8438 1.24255C15.4062 1.61755 15.6406 2.36755 15.3594 3.0238Z" fill="#04C8BB"/>
</svg>
