<svg width="15" height="11" viewBox="0 0 15 11" fill="none" xmlns="http://www.w3.org/2000/svg">
<path d="M0.154917 7.19663C0.154917 5.82667 1.03876 4.63349 2.27614 4.21366C2.27614 4.14737 2.27614 4.08109 2.27614 4.0148C2.27614 2.07035 3.84496 0.47943 5.81151 0.47943C7.11517 0.47943 8.26417 1.2086 8.86076 2.26921C9.1922 2.02615 9.61203 1.89358 10.0539 1.89358C11.225 1.89358 12.1752 2.84371 12.1752 4.0148C12.1752 4.30205 12.1089 4.5451 12.0205 4.78816C13.3242 5.05331 14.2964 6.20231 14.2964 7.55017C14.2964 9.11899 13.0148 10.3785 11.4681 10.3785H3.33675C1.56906 10.3785 0.154917 8.96431 0.154917 7.19663Z" fill="#667EEA"/>
</svg>
