<svg width="24" height="25" viewBox="0 0 24 25" fill="none" xmlns="http://www.w3.org/2000/svg">
<path d="M12 24.9144C5.34375 24.9144 0 19.5707 0 12.9144C0 6.30505 5.34375 0.914429 12 0.914429C18.6094 0.914429 24 6.30505 24 12.9144C24 19.5707 18.6094 24.9144 12 24.9144ZM10.875 6.53943V12.9144C10.875 13.2894 11.0625 13.6644 11.3438 13.8519L15.8438 16.8519C16.3594 17.2269 17.0625 17.0863 17.4375 16.5707C17.7656 16.0551 17.625 15.3519 17.1094 14.9769L13.125 12.3519V6.53943C13.125 5.93005 12.6094 5.41443 12 5.41443C11.3438 5.41443 10.875 5.93005 10.875 6.53943Z" fill="#F56565"/>
</svg>
