<svg width="20" height="22" viewBox="0 0 20 22" fill="none" xmlns="http://www.w3.org/2000/svg">
<path d="M10.2853 21.6568C5.13783 21.6568 0.98665 20.2038 0.98665 18.3358V3.72366C0.98665 1.89714 5.13783 0.402712 10.2853 0.402712C15.3912 0.402712 19.5839 1.89714 19.5839 3.72366V18.3358C19.5839 20.2038 15.3912 21.6568 10.2853 21.6568ZM17.5914 4.01424L17.5499 3.97273C17.3423 3.80668 16.8857 3.5161 16.18 3.26703C14.7686 2.76888 12.6515 2.39528 10.2853 2.39528C7.87761 2.39528 5.76051 2.76888 4.34911 3.26703C3.6434 3.5161 3.18678 3.80668 2.97922 3.97273V4.01424V7.66728C3.51887 7.95786 4.26608 8.24844 5.22085 8.49751C6.63225 8.82961 8.37575 9.03717 10.2853 9.03717C12.1533 9.03717 13.8968 8.82961 15.3082 8.49751C16.263 8.24844 17.0102 7.95786 17.5914 7.66728V4.01424ZM17.5914 9.8674C17.0102 10.075 16.429 10.2825 15.7649 10.4486C14.1874 10.8222 12.2779 11.0297 10.2853 11.0297C8.25122 11.0297 6.34167 10.8222 4.76422 10.4486C4.10003 10.2825 3.51887 10.075 2.97922 9.8674V12.9808C3.51887 13.2714 4.26608 13.562 5.22085 13.811C6.63225 14.1431 8.37575 14.3507 10.2853 14.3507C12.1533 14.3507 13.8968 14.1431 15.3082 13.811C16.263 13.562 17.0102 13.2714 17.5914 12.9808V9.8674ZM2.97922 18.1283C3.18678 18.2943 3.6434 18.5849 4.34911 18.834C5.76051 19.3321 7.87761 19.6642 10.2438 19.6642C12.6515 19.6642 14.7686 19.3321 16.18 18.834C16.8857 18.5849 17.3423 18.2943 17.5499 18.1283L17.5914 18.0867V15.1809C17.0102 15.3885 16.429 15.596 15.7649 15.7621C14.1874 16.1357 12.2779 16.3432 10.2438 16.3432C8.25122 16.3432 6.34167 16.1357 4.76422 15.7621C4.10003 15.596 3.51887 15.3885 2.9377 15.1809V18.0867L2.97922 18.1283ZM17.6744 18.0037L17.6329 18.0452C17.6744 18.0037 17.6744 18.0037 17.6744 18.0037ZM2.89619 18.0452C2.89619 18.0037 2.85468 18.0037 2.85468 18.0037L2.89619 18.0452ZM2.89619 4.05575C2.85468 4.09726 2.85468 4.09726 2.85468 4.09726L2.89619 4.05575ZM17.6744 4.09726C17.6744 4.09726 17.6744 4.09726 17.6329 4.05575L17.6744 4.09726Z" fill="#16A394"/>
</svg>
