<svg width="106" height="32" viewBox="0 0 106 32" fill="none" xmlns="http://www.w3.org/2000/svg">
<path fill-rule="evenodd" clip-rule="evenodd" d="M0.246914 21.9005C-0.0776859 21.3885 -0.0825899 20.7364 0.234273 20.2195L12.1647 0.758486C12.8283 -0.323916 14.4306 -0.229273 14.9621 0.923718L25.8612 24.5663C26.2656 25.4435 25.8001 26.4757 24.8748 26.7532L7.92051 31.8395C7.23837 32.0442 6.50338 31.7699 6.12207 31.1684L0.246914 21.9005ZM13.5412 6.44873C13.6562 5.87623 14.4406 5.79367 14.6723 6.32969L22.1903 23.726C22.3318 24.0535 22.1557 24.4312 21.8138 24.5332L10.0997 28.03C9.66912 28.1585 9.25665 27.7823 9.34513 27.3417L13.5412 6.44873ZM57.118 24.4091H60.4487V12.2009H57.118V24.4091ZM56.9763 9.04526C56.9763 7.96101 57.5808 7.4185 58.7893 7.4185C59.9973 7.4185 60.6019 7.96101 60.6019 9.04526C60.6019 9.56232 60.4507 9.96448 60.1488 10.2521C59.8465 10.5398 59.3935 10.6832 58.7893 10.6832C57.5808 10.6832 56.9763 10.1372 56.9763 9.04526ZM102.671 18.7531L101.383 18.7967C100.415 18.826 99.6939 19.001 99.2208 19.321C98.7473 19.6415 98.5109 20.1288 98.5109 20.7843C98.5109 21.7232 99.0496 22.1928 100.127 22.1928C100.898 22.1928 101.516 21.9711 101.978 21.5266C102.44 21.0828 102.671 20.4932 102.671 19.7575V18.7531ZM103.654 24.4095L103.01 22.7496H102.922C102.362 23.456 101.785 23.9457 101.191 24.2187C100.598 24.4917 99.825 24.6278 98.8715 24.6278C97.6989 24.6278 96.7766 24.2931 96.103 23.6233C95.4298 22.954 95.0932 22 95.0932 20.7623C95.0932 19.4668 95.5462 18.5113 96.4523 17.8959C97.3592 17.2809 98.7257 16.9405 100.553 16.8749L102.671 16.8094V16.2742C102.671 15.0369 102.038 14.418 100.771 14.418C99.7957 14.418 98.649 14.7126 97.3315 15.3025L96.2287 13.0531C97.6338 12.3182 99.1919 11.9499 100.902 11.9499C102.54 11.9499 103.796 12.307 104.67 13.0203C105.543 13.7336 105.98 14.8186 105.98 16.2742V24.4095H103.654ZM85.3684 24.4095H82.0378V17.2789C82.0378 16.3983 81.8901 15.7378 81.5959 15.2971C81.3006 14.8567 80.8367 14.6362 80.2032 14.6362C79.3518 14.6362 78.733 14.9497 78.347 15.5755C77.9611 16.2016 77.7683 17.2319 77.7683 18.6659V24.4095H74.4376V12.2013H76.9821L77.4297 13.7628H77.6156C77.9429 13.2026 78.4164 12.7638 79.0349 12.4473C79.6538 12.1303 80.3636 11.9718 81.1645 11.9718C82.9917 11.9718 84.229 12.5691 84.8772 13.7628H85.1718C85.4995 13.1949 85.9819 12.7546 86.6189 12.4415C87.2558 12.1284 87.9746 11.9718 88.7754 11.9718C90.1585 11.9718 91.2053 12.327 91.9148 13.0368C92.6246 13.7467 92.9794 14.8841 92.9794 16.4488V24.4095H89.6379V17.2789C89.6379 16.3983 89.4903 15.7378 89.1961 15.2971C88.9007 14.8567 88.4369 14.6362 87.8034 14.6362C86.9882 14.6362 86.3787 14.9277 85.9742 15.5099C85.5705 16.0925 85.3684 17.0168 85.3684 18.2834V24.4095ZM70.8692 23.6451C71.7395 22.99 72.1744 22.0365 72.1744 20.7841C72.1744 20.1803 72.0692 19.6594 71.8578 19.2225C71.6466 18.7856 71.3188 18.4001 70.875 18.065C70.4312 17.7303 69.7321 17.3702 68.7782 16.9842C67.7082 16.5547 67.015 16.2304 66.698 16.0122C66.3818 15.7939 66.223 15.5356 66.223 15.2368C66.223 14.7054 66.7146 14.4398 67.6974 14.4398C68.2504 14.4398 68.7929 14.5238 69.3242 14.6908C69.8555 14.8585 70.4273 15.0729 71.0389 15.3351L72.0433 12.9329C70.6529 12.2925 69.2224 11.9721 67.7518 11.9721C66.2083 11.9721 65.0165 12.2686 64.176 12.862C63.3346 13.4554 62.9143 14.2944 62.9143 15.3787C62.9143 16.0122 63.0146 16.5458 63.2151 16.9788C63.4148 17.4118 63.7352 17.7959 64.176 18.1305C64.6159 18.4656 65.3061 18.8296 66.245 19.2225C66.9001 19.4994 67.4245 19.7415 67.8174 19.9489C68.2107 20.1564 68.4871 20.3422 68.6475 20.5057C68.8075 20.6696 68.8877 20.8824 68.8877 21.1446C68.8877 21.8433 68.2831 22.1926 67.0747 22.1926C66.4852 22.1926 65.8027 22.0943 65.0277 21.898C64.2519 21.7014 63.5552 21.4577 62.9363 21.1662V23.9181C63.4823 24.151 64.0684 24.3276 64.6945 24.4479C65.3207 24.5678 66.0772 24.6279 66.9656 24.6279C68.698 24.6279 69.9994 24.3002 70.8692 23.6451ZM55.3512 12.0702C55.0528 12.0046 54.678 11.9718 54.2265 11.9718C53.4692 11.9718 52.7686 12.1812 52.1247 12.5999C51.48 13.0187 50.9688 13.5701 50.5901 14.2541H50.4266L49.935 12.2013H47.4126V24.4095H50.7432V18.1962C50.7432 17.2134 51.0397 16.4488 51.6327 15.9028C52.2265 15.3568 53.0544 15.0838 54.1174 15.0838C54.5034 15.0838 54.8307 15.1205 55.1002 15.193L55.3512 12.0702ZM37.6097 15.9574H38.7236C39.7647 15.9574 40.5431 15.7518 41.0602 15.3404C41.5773 14.9294 41.8356 14.3302 41.8356 13.544C41.8356 12.7509 41.6189 12.1648 41.1859 11.7862C40.7525 11.4075 40.0739 11.2182 39.1493 11.2182H37.6097V15.9574ZM45.2534 13.4242C45.2534 15.1423 44.7167 16.4564 43.6425 17.3659C42.569 18.2763 41.0421 18.7309 39.0622 18.7309H37.6097V24.4093H34.2247V8.4448H39.324C41.2607 8.4448 42.7329 8.86161 43.7412 9.69523C44.7495 10.5289 45.2534 11.772 45.2534 13.4242Z" fill="#fff"/>
</svg>
