<svg width="23" height="21" viewBox="0 0 23 21" fill="none" xmlns="http://www.w3.org/2000/svg">
<path d="M3.00161 0.671437C1.43714 0.671437 0.220334 1.9317 0.220334 3.45272V6.234C0.220334 7.79847 1.43714 9.01528 3.00161 9.01528H19.6893C21.2103 9.01528 22.4706 7.79847 22.4706 6.234V3.45272C22.4706 1.9317 21.2103 0.671437 19.6893 0.671437H3.00161ZM15.1697 5.88634C14.5613 5.88634 14.1267 5.45176 14.1267 4.84336C14.1267 4.27841 14.5613 3.80038 15.1697 3.80038C15.7347 3.80038 16.2127 4.27841 16.2127 4.84336C16.2127 5.45176 15.7347 5.88634 15.1697 5.88634ZM19.3416 4.84336C19.3416 5.45176 18.8636 5.88634 18.2987 5.88634C17.6902 5.88634 17.2557 5.45176 17.2557 4.84336C17.2557 4.27841 17.6902 3.80038 18.2987 3.80038C18.8636 3.80038 19.3416 4.27841 19.3416 4.84336ZM3.00161 11.7966C1.43714 11.7966 0.220334 13.0568 0.220334 14.5778V17.3591C0.220334 18.9236 1.43714 20.1404 3.00161 20.1404H19.6893C21.2103 20.1404 22.4706 18.9236 22.4706 17.3591V14.5778C22.4706 13.0568 21.2103 11.7966 19.6893 11.7966H3.00161ZM15.1697 17.0115C14.5613 17.0115 14.1267 16.5769 14.1267 15.9685C14.1267 15.4035 14.5613 14.9255 15.1697 14.9255C15.7347 14.9255 16.2127 15.4035 16.2127 15.9685C16.2127 16.5769 15.7347 17.0115 15.1697 17.0115ZM19.6893 15.9685C19.6893 16.5769 19.2113 17.0115 18.6463 17.0115C18.0379 17.0115 17.6033 16.5769 17.6033 15.9685C17.6033 15.4035 18.0379 14.9255 18.6463 14.9255C19.2113 14.9255 19.6893 15.4035 19.6893 15.9685Z" fill="#1E1B18"/>
</svg>
