<svg width="431" height="130" viewBox="0 0 431 130" fill="none" xmlns="http://www.w3.org/2000/svg">
<rect x="9.69922" y="0.914551" width="59.6" height="14.8" rx="4.8" fill="#1A202C"/>
<path d="M18.3008 12.1271C18.1133 12.3615 17.7539 12.3615 17.5664 12.1271C16.7695 11.1115 14.9414 8.68958 14.9414 7.31458C14.9414 5.65833 16.2852 4.31458 17.9414 4.31458C19.5977 4.31458 20.9414 5.65833 20.9414 7.31458C20.9414 8.68958 19.1133 11.1115 18.3008 12.1271ZM17.9414 8.31458C18.4883 8.31458 18.9414 7.87708 18.9414 7.31458C18.9414 6.7677 18.4883 6.31458 17.9414 6.31458C17.3789 6.31458 16.9414 6.7677 16.9414 7.31458C16.9414 7.87708 17.3789 8.31458 17.9414 8.31458ZM27.719 6.58658C27.719 6.61324 27.7083 6.63724 27.687 6.65858C27.671 6.67457 27.6496 6.68257 27.623 6.68257H24.999C24.9723 6.68257 24.959 6.69591 24.959 6.72258V7.96257C24.959 7.98924 24.9723 8.00257 24.999 8.00257H26.719C26.7456 8.00257 26.767 8.01324 26.783 8.03457C26.8043 8.05058 26.815 8.07191 26.815 8.09858V8.87458C26.815 8.90124 26.8043 8.92524 26.783 8.94658C26.767 8.96258 26.7456 8.97058 26.719 8.97058H24.999C24.9723 8.97058 24.959 8.98391 24.959 9.01058V10.3066C24.959 10.3332 24.9723 10.3466 24.999 10.3466H27.623C27.6496 10.3466 27.671 10.3572 27.687 10.3786C27.7083 10.3946 27.719 10.4159 27.719 10.4426V11.2186C27.719 11.2452 27.7083 11.2692 27.687 11.2906C27.671 11.3066 27.6496 11.3146 27.623 11.3146H23.927C23.9003 11.3146 23.8763 11.3066 23.855 11.2906C23.839 11.2692 23.831 11.2452 23.831 11.2186V5.81058C23.831 5.78391 23.839 5.76257 23.855 5.74657C23.8763 5.72524 23.9003 5.71457 23.927 5.71457H27.623C27.6496 5.71457 27.671 5.72524 27.687 5.74657C27.7083 5.76257 27.719 5.78391 27.719 5.81058V6.58658ZM30.8228 11.3786C30.3962 11.3786 30.0228 11.3119 29.7028 11.1786C29.3828 11.0399 29.1348 10.8452 28.9588 10.5946C28.7882 10.3386 28.7028 10.0426 28.7028 9.70658V9.53058C28.7028 9.50391 28.7108 9.48258 28.7268 9.46658C28.7482 9.44524 28.7722 9.43458 28.7988 9.43458H29.7108C29.7375 9.43458 29.7588 9.44524 29.7748 9.46658C29.7962 9.48258 29.8068 9.50391 29.8068 9.53058V9.65058C29.8068 9.86391 29.9055 10.0452 30.1028 10.1946C30.3002 10.3386 30.5668 10.4106 30.9028 10.4106C31.1855 10.4106 31.3962 10.3519 31.5348 10.2346C31.6735 10.1119 31.7428 9.96258 31.7428 9.78658C31.7428 9.65858 31.7002 9.55191 31.6148 9.46658C31.5295 9.37591 31.4122 9.29858 31.2628 9.23458C31.1188 9.16524 30.8868 9.07191 30.5668 8.95458C30.2095 8.83191 29.9055 8.70658 29.6548 8.57858C29.4095 8.45058 29.2015 8.27724 29.0308 8.05858C28.8655 7.83458 28.7828 7.55991 28.7828 7.23457C28.7828 6.91457 28.8655 6.63457 29.0308 6.39458C29.1962 6.15458 29.4255 5.97058 29.7188 5.84258C30.0122 5.71458 30.3508 5.65058 30.7348 5.65058C31.1402 5.65058 31.5002 5.72258 31.8148 5.86657C32.1348 6.01057 32.3828 6.21324 32.5588 6.47458C32.7402 6.73057 32.8308 7.02924 32.8308 7.37057V7.49058C32.8308 7.51724 32.8202 7.54124 32.7988 7.56258C32.7828 7.57858 32.7615 7.58658 32.7348 7.58658H31.8148C31.7882 7.58658 31.7642 7.57858 31.7428 7.56258C31.7268 7.54124 31.7188 7.51724 31.7188 7.49058V7.42657C31.7188 7.20258 31.6255 7.01324 31.4388 6.85857C31.2575 6.69858 31.0068 6.61858 30.6868 6.61858C30.4362 6.61858 30.2388 6.67191 30.0948 6.77857C29.9562 6.88524 29.8868 7.03191 29.8868 7.21858C29.8868 7.35191 29.9268 7.46391 30.0068 7.55457C30.0922 7.64524 30.2148 7.72791 30.3748 7.80258C30.5402 7.87191 30.7935 7.96791 31.1348 8.09057C31.5135 8.22924 31.8095 8.35191 32.0228 8.45858C32.2415 8.56524 32.4362 8.72524 32.6068 8.93858C32.7828 9.14658 32.8708 9.41858 32.8708 9.75458C32.8708 10.2559 32.6868 10.6532 32.3188 10.9466C31.9508 11.2346 31.4522 11.3786 30.8228 11.3786ZM35.9807 11.3786C35.554 11.3786 35.1807 11.3119 34.8607 11.1786C34.5407 11.0399 34.2927 10.8452 34.1167 10.5946C33.946 10.3386 33.8607 10.0426 33.8607 9.70658V9.53058C33.8607 9.50391 33.8687 9.48258 33.8847 9.46658C33.906 9.44524 33.93 9.43458 33.9567 9.43458H34.8687C34.8953 9.43458 34.9167 9.44524 34.9327 9.46658C34.954 9.48258 34.9647 9.50391 34.9647 9.53058V9.65058C34.9647 9.86391 35.0633 10.0452 35.2607 10.1946C35.458 10.3386 35.7247 10.4106 36.0607 10.4106C36.3433 10.4106 36.554 10.3519 36.6927 10.2346C36.8313 10.1119 36.9007 9.96258 36.9007 9.78658C36.9007 9.65858 36.858 9.55191 36.7727 9.46658C36.6873 9.37591 36.57 9.29858 36.4207 9.23458C36.2767 9.16524 36.0447 9.07191 35.7247 8.95458C35.3673 8.83191 35.0633 8.70658 34.8127 8.57858C34.5673 8.45058 34.3593 8.27724 34.1887 8.05858C34.0233 7.83458 33.9407 7.55991 33.9407 7.23457C33.9407 6.91457 34.0233 6.63457 34.1887 6.39458C34.354 6.15458 34.5833 5.97058 34.8767 5.84258C35.17 5.71458 35.5087 5.65058 35.8927 5.65058C36.298 5.65058 36.658 5.72258 36.9727 5.86657C37.2927 6.01057 37.5407 6.21324 37.7167 6.47458C37.898 6.73057 37.9887 7.02924 37.9887 7.37057V7.49058C37.9887 7.51724 37.978 7.54124 37.9567 7.56258C37.9407 7.57858 37.9193 7.58658 37.8927 7.58658H36.9727C36.946 7.58658 36.922 7.57858 36.9007 7.56258C36.8847 7.54124 36.8767 7.51724 36.8767 7.49058V7.42657C36.8767 7.20258 36.7833 7.01324 36.5967 6.85857C36.4153 6.69858 36.1647 6.61858 35.8447 6.61858C35.594 6.61858 35.3967 6.67191 35.2527 6.77857C35.114 6.88524 35.0447 7.03191 35.0447 7.21858C35.0447 7.35191 35.0847 7.46391 35.1647 7.55457C35.25 7.64524 35.3727 7.72791 35.5327 7.80258C35.698 7.87191 35.9513 7.96791 36.2927 8.09057C36.6713 8.22924 36.9673 8.35191 37.1807 8.45858C37.3993 8.56524 37.594 8.72524 37.7647 8.93858C37.9407 9.14658 38.0287 9.41858 38.0287 9.75458C38.0287 10.2559 37.8447 10.6532 37.4767 10.9466C37.1087 11.2346 36.61 11.3786 35.9807 11.3786ZM43.1065 6.58658C43.1065 6.61324 43.0958 6.63724 43.0745 6.65858C43.0585 6.67457 43.0371 6.68257 43.0105 6.68257H40.3865C40.3598 6.68257 40.3465 6.69591 40.3465 6.72258V7.96257C40.3465 7.98924 40.3598 8.00257 40.3865 8.00257H42.1065C42.1331 8.00257 42.1545 8.01324 42.1705 8.03457C42.1918 8.05058 42.2025 8.07191 42.2025 8.09858V8.87458C42.2025 8.90124 42.1918 8.92524 42.1705 8.94658C42.1545 8.96258 42.1331 8.97058 42.1065 8.97058H40.3865C40.3598 8.97058 40.3465 8.98391 40.3465 9.01058V10.3066C40.3465 10.3332 40.3598 10.3466 40.3865 10.3466H43.0105C43.0371 10.3466 43.0585 10.3572 43.0745 10.3786C43.0958 10.3946 43.1065 10.4159 43.1065 10.4426V11.2186C43.1065 11.2452 43.0958 11.2692 43.0745 11.2906C43.0585 11.3066 43.0371 11.3146 43.0105 11.3146H39.3145C39.2878 11.3146 39.2638 11.3066 39.2425 11.2906C39.2265 11.2692 39.2185 11.2452 39.2185 11.2186V5.81058C39.2185 5.78391 39.2265 5.76257 39.2425 5.74657C39.2638 5.72524 39.2878 5.71457 39.3145 5.71457H43.0105C43.0371 5.71457 43.0585 5.72524 43.0745 5.74657C43.0958 5.76257 43.1065 5.78391 43.1065 5.81058V6.58658ZM47.5063 5.81058C47.5063 5.78391 47.5143 5.76257 47.5303 5.74657C47.5517 5.72524 47.5757 5.71457 47.6023 5.71457H48.5383C48.565 5.71457 48.5863 5.72524 48.6023 5.74657C48.6237 5.76257 48.6343 5.78391 48.6343 5.81058V11.2186C48.6343 11.2452 48.6237 11.2692 48.6023 11.2906C48.5863 11.3066 48.565 11.3146 48.5383 11.3146H47.6343C47.581 11.3146 47.5437 11.2932 47.5223 11.2506L45.4503 7.82658C45.4397 7.81058 45.429 7.80524 45.4183 7.81058C45.4077 7.81058 45.4023 7.82124 45.4023 7.84258L45.4183 11.2186C45.4183 11.2452 45.4077 11.2692 45.3863 11.2906C45.3703 11.3066 45.349 11.3146 45.3223 11.3146H44.3863C44.3597 11.3146 44.3357 11.3066 44.3143 11.2906C44.2983 11.2692 44.2903 11.2452 44.2903 11.2186V5.81058C44.2903 5.78391 44.2983 5.76257 44.3143 5.74657C44.3357 5.72524 44.3597 5.71457 44.3863 5.71457H45.2903C45.3437 5.71457 45.381 5.73591 45.4023 5.77857L47.4663 9.18658C47.477 9.20258 47.4877 9.21058 47.4983 9.21058C47.509 9.20524 47.5143 9.19191 47.5143 9.17058L47.5063 5.81058ZM49.9387 12.0986C49.8747 12.0986 49.8453 12.0639 49.8507 11.9946L50.1147 10.1386C50.12 10.0799 50.1547 10.0506 50.2187 10.0506H51.0347C51.104 10.0506 51.1307 10.0852 51.1147 10.1546L50.6187 12.0186C50.6027 12.0719 50.5653 12.0986 50.5067 12.0986H49.9387ZM54.6254 11.3146C54.5987 11.3146 54.5747 11.3066 54.5534 11.2906C54.5374 11.2692 54.5294 11.2452 54.5294 11.2186V5.81058C54.5294 5.78391 54.5374 5.76257 54.5534 5.74657C54.5747 5.72524 54.5987 5.71457 54.6254 5.71457H56.6254C57.0254 5.71457 57.3747 5.78657 57.6734 5.93057C57.9774 6.06924 58.2121 6.26658 58.3774 6.52257C58.5427 6.77858 58.6254 7.07458 58.6254 7.41057V9.61858C58.6254 9.95458 58.5427 10.2506 58.3774 10.5066C58.2121 10.7626 57.9774 10.9626 57.6734 11.1066C57.3747 11.2452 57.0254 11.3146 56.6254 11.3146H54.6254ZM55.6574 10.3066C55.6574 10.3332 55.6707 10.3466 55.6974 10.3466H56.6654C56.9107 10.3466 57.1081 10.2639 57.2574 10.0986C57.4121 9.93324 57.4921 9.71191 57.4974 9.43458V7.59457C57.4974 7.31724 57.4201 7.09591 57.2654 6.93057C57.1161 6.76524 56.9134 6.68257 56.6574 6.68257H55.6974C55.6707 6.68257 55.6574 6.69591 55.6574 6.72258V10.3066ZM63.7627 6.58658C63.7627 6.61324 63.7521 6.63724 63.7307 6.65858C63.7147 6.67457 63.6934 6.68257 63.6667 6.68257H61.0427C61.0161 6.68257 61.0027 6.69591 61.0027 6.72258V7.96257C61.0027 7.98924 61.0161 8.00257 61.0427 8.00257H62.7627C62.7894 8.00257 62.8107 8.01324 62.8267 8.03457C62.8481 8.05058 62.8587 8.07191 62.8587 8.09858V8.87458C62.8587 8.90124 62.8481 8.92524 62.8267 8.94658C62.8107 8.96258 62.7894 8.97058 62.7627 8.97058H61.0427C61.0161 8.97058 61.0027 8.98391 61.0027 9.01058V10.3066C61.0027 10.3332 61.0161 10.3466 61.0427 10.3466H63.6667C63.6934 10.3466 63.7147 10.3572 63.7307 10.3786C63.7521 10.3946 63.7627 10.4159 63.7627 10.4426V11.2186C63.7627 11.2452 63.7521 11.2692 63.7307 11.2906C63.7147 11.3066 63.6934 11.3146 63.6667 11.3146H59.9707C59.9441 11.3146 59.9201 11.3066 59.8987 11.2906C59.8827 11.2692 59.8747 11.2452 59.8747 11.2186V5.81058C59.8747 5.78391 59.8827 5.76257 59.8987 5.74657C59.9201 5.72524 59.9441 5.71457 59.9707 5.71457H63.6667C63.6934 5.71457 63.7147 5.72524 63.7307 5.74657C63.7521 5.76257 63.7627 5.78391 63.7627 5.81058V6.58658Z" fill="#F6AD55"/>
<g filter="url(#filter0_dd_274_31419)">
<rect x="14.0508" y="59.8419" width="50.9007" height="28.3651" rx="3.13235" fill="url(#paint0_linear_274_31419)"/>
<rect x="14.0508" y="52.5237" width="50.9007" height="28.3651" rx="3.13235" fill="url(#paint1_linear_274_31419)"/>
<rect x="14.0508" y="52.5237" width="50.9007" height="28.3651" rx="3.13235" fill="url(#paint2_radial_274_31419)" fill-opacity="0.44"/>
<rect x="14.0508" y="51.1514" width="50.9007" height="28.3651" rx="3.13235" fill="url(#paint3_linear_274_31419)"/>
<rect x="14.0508" y="51.1514" width="50.9007" height="28.3651" rx="3.13235" fill="#C6D4DB" fill-opacity="0.284"/>
<rect opacity="0.5" x="14.0508" y="47.4926" width="50.9007" height="28.3651" rx="3.13235" fill="url(#paint4_linear_274_31419)"/>
<rect x="14.0508" y="45.6591" width="50.9007" height="28.3651" rx="3.13235" fill="url(#paint5_linear_274_31419)"/>
<rect x="14.0508" y="38.3414" width="50.9007" height="28.3651" rx="3.13235" fill="url(#paint6_linear_274_31419)"/>
<rect x="14.0508" y="38.3414" width="50.9007" height="28.3651" rx="3.13235" fill="url(#paint7_radial_274_31419)" fill-opacity="0.44"/>
<rect x="14.0508" y="36.9691" width="50.9007" height="28.3651" rx="3.13235" fill="url(#paint8_linear_274_31419)"/>
<rect x="14.0508" y="36.9691" width="50.9007" height="28.3651" rx="3.13235" fill="#C6D4DB" fill-opacity="0.284"/>
<rect opacity="0.5" x="14.0508" y="33.3098" width="50.9007" height="28.3651" rx="3.13235" fill="url(#paint9_linear_274_31419)"/>
<rect x="14.0508" y="31.7145" width="50.9007" height="28.3651" rx="3.13235" fill="url(#paint10_linear_274_31419)"/>
<rect x="14.0508" y="31.7145" width="50.9007" height="21.9822" rx="3.13235" fill="url(#paint11_linear_274_31419)"/>
<rect x="14.4903" y="32.1541" width="50.0216" height="21.1031" rx="2.69279" stroke="url(#paint12_radial_274_31419)" stroke-opacity="0.46" stroke-width="0.87913"/>
<g filter="url(#filter1_iiii_274_31419)">
<ellipse cx="21.2563" cy="57.2288" rx="1.52196" ry="1.518" fill="#667EEA"/>
</g>
<path d="M21.2563 58.9425C22.2045 58.9425 22.9741 58.1757 22.9741 57.2288C22.9741 56.2818 22.2045 55.515 21.2563 55.515C20.3081 55.515 19.5386 56.2818 19.5386 57.2288C19.5386 58.1757 20.3081 58.9425 21.2563 58.9425Z" stroke="#C3DAFE" stroke-opacity="0.67" stroke-width="0.391544"/>
<g filter="url(#filter2_iiii_274_31419)">
<ellipse cx="26.1743" cy="57.2288" rx="1.52196" ry="1.518" fill="#667EEA"/>
</g>
<path d="M26.1743 58.9425C27.1225 58.9425 27.892 58.1757 27.892 57.2288C27.892 56.2818 27.1225 55.515 26.1743 55.515C25.2261 55.515 24.4566 56.2818 24.4566 57.2288C24.4566 58.1757 25.2261 58.9425 26.1743 58.9425Z" stroke="#C3DAFE" stroke-opacity="0.67" stroke-width="0.391544"/>
<g filter="url(#filter3_iiii_274_31419)">
<rect x="46.8516" y="56.7967" width="13.2821" height="0.86415" rx="0.432075" fill="#3F5564"/>
</g>
<rect x="46.6558" y="56.6009" width="13.6736" height="1.25569" rx="0.627847" stroke="#C3DAFE" stroke-opacity="0.67" stroke-width="0.391544"/>
</g>
<rect x="0.199219" y="104.207" width="78.6" height="11.8" rx="4.8" fill="#1A202C"/>
<path d="M6.61208 112.607C6.57208 112.607 6.54608 112.587 6.53408 112.547L5.29808 108.491L5.29208 108.467C5.29208 108.427 5.31408 108.407 5.35808 108.407H6.11408C6.15808 108.407 6.18608 108.427 6.19808 108.467L6.99608 111.395C7.00008 111.407 7.00608 111.413 7.01408 111.413C7.02208 111.413 7.02808 111.407 7.03208 111.395L7.81808 108.467C7.83008 108.427 7.85808 108.407 7.90208 108.407H8.64008C8.66408 108.407 8.68208 108.415 8.69408 108.431C8.70608 108.447 8.70808 108.467 8.70008 108.491L7.44608 112.547C7.43408 112.587 7.40808 112.607 7.36808 112.607H6.61208ZM12.4093 109.061C12.4093 109.081 12.4013 109.099 12.3853 109.115C12.3733 109.127 12.3573 109.133 12.3373 109.133H10.3693C10.3493 109.133 10.3393 109.143 10.3393 109.163V110.093C10.3393 110.113 10.3493 110.123 10.3693 110.123H11.6593C11.6793 110.123 11.6953 110.131 11.7073 110.147C11.7233 110.159 11.7313 110.175 11.7313 110.195V110.777C11.7313 110.797 11.7233 110.815 11.7073 110.831C11.6953 110.843 11.6793 110.849 11.6593 110.849H10.3693C10.3493 110.849 10.3393 110.859 10.3393 110.879V111.851C10.3393 111.871 10.3493 111.881 10.3693 111.881H12.3373C12.3573 111.881 12.3733 111.889 12.3853 111.905C12.4013 111.917 12.4093 111.933 12.4093 111.953V112.535C12.4093 112.555 12.4013 112.573 12.3853 112.589C12.3733 112.601 12.3573 112.607 12.3373 112.607H9.56534C9.54534 112.607 9.52734 112.601 9.51134 112.589C9.49934 112.573 9.49334 112.555 9.49334 112.535V108.479C9.49334 108.459 9.49934 108.443 9.51134 108.431C9.52734 108.415 9.54534 108.407 9.56534 108.407H12.3373C12.3573 108.407 12.3733 108.415 12.3853 108.431C12.4013 108.443 12.4093 108.459 12.4093 108.479V109.061ZM15.6012 112.607C15.5612 112.607 15.5332 112.589 15.5172 112.553L14.7672 110.891C14.7592 110.875 14.7472 110.867 14.7312 110.867H14.1732C14.1532 110.867 14.1432 110.877 14.1432 110.897V112.535C14.1432 112.555 14.1352 112.573 14.1192 112.589C14.1072 112.601 14.0912 112.607 14.0712 112.607H13.3692C13.3492 112.607 13.3312 112.601 13.3152 112.589C13.3032 112.573 13.2972 112.555 13.2972 112.535V108.479C13.2972 108.459 13.3032 108.443 13.3152 108.431C13.3312 108.415 13.3492 108.407 13.3692 108.407H15.0852C15.3412 108.407 15.5652 108.459 15.7572 108.563C15.9532 108.667 16.1032 108.815 16.2072 109.007C16.3152 109.199 16.3692 109.421 16.3692 109.673C16.3692 109.945 16.3012 110.179 16.1652 110.375C16.0292 110.567 15.8392 110.703 15.5952 110.783C15.5752 110.791 15.5692 110.805 15.5772 110.825L16.3932 112.523C16.4012 112.539 16.4052 112.551 16.4052 112.559C16.4052 112.591 16.3832 112.607 16.3392 112.607H15.6012ZM14.1732 109.133C14.1532 109.133 14.1432 109.143 14.1432 109.163V110.189C14.1432 110.209 14.1532 110.219 14.1732 110.219H14.9592C15.1272 110.219 15.2632 110.169 15.3672 110.069C15.4752 109.969 15.5292 109.839 15.5292 109.679C15.5292 109.519 15.4752 109.389 15.3672 109.289C15.2632 109.185 15.1272 109.133 14.9592 109.133H14.1732ZM18.7588 112.655C18.4468 112.655 18.1728 112.595 17.9368 112.475C17.7008 112.351 17.5188 112.179 17.3908 111.959C17.2628 111.739 17.1988 111.485 17.1988 111.197V109.811C17.1988 109.523 17.2628 109.269 17.3908 109.049C17.5188 108.829 17.7008 108.659 17.9368 108.539C18.1728 108.419 18.4468 108.359 18.7588 108.359C19.0668 108.359 19.3368 108.417 19.5688 108.533C19.8048 108.645 19.9868 108.807 20.1148 109.019C20.2468 109.227 20.3128 109.469 20.3128 109.745C20.3128 109.781 20.2888 109.803 20.2408 109.811L19.5388 109.853H19.5268C19.4868 109.853 19.4668 109.831 19.4668 109.787C19.4668 109.575 19.4008 109.405 19.2688 109.277C19.1408 109.149 18.9708 109.085 18.7588 109.085C18.5428 109.085 18.3688 109.149 18.2368 109.277C18.1088 109.405 18.0448 109.575 18.0448 109.787V111.233C18.0448 111.441 18.1088 111.609 18.2368 111.737C18.3688 111.865 18.5428 111.929 18.7588 111.929C18.9708 111.929 19.1408 111.865 19.2688 111.737C19.4008 111.609 19.4668 111.441 19.4668 111.233C19.4668 111.189 19.4908 111.167 19.5388 111.167L20.2408 111.197C20.2608 111.197 20.2768 111.203 20.2888 111.215C20.3048 111.227 20.3128 111.241 20.3128 111.257C20.3128 111.533 20.2468 111.777 20.1148 111.989C19.9868 112.201 19.8048 112.365 19.5688 112.481C19.3368 112.597 19.0668 112.655 18.7588 112.655ZM24.1492 109.061C24.1492 109.081 24.1412 109.099 24.1252 109.115C24.1132 109.127 24.0972 109.133 24.0772 109.133H22.1092C22.0892 109.133 22.0792 109.143 22.0792 109.163V110.093C22.0792 110.113 22.0892 110.123 22.1092 110.123H23.3992C23.4192 110.123 23.4352 110.131 23.4472 110.147C23.4632 110.159 23.4712 110.175 23.4712 110.195V110.777C23.4712 110.797 23.4632 110.815 23.4472 110.831C23.4352 110.843 23.4192 110.849 23.3992 110.849H22.1092C22.0892 110.849 22.0792 110.859 22.0792 110.879V111.851C22.0792 111.871 22.0892 111.881 22.1092 111.881H24.0772C24.0972 111.881 24.1132 111.889 24.1252 111.905C24.1412 111.917 24.1492 111.933 24.1492 111.953V112.535C24.1492 112.555 24.1412 112.573 24.1252 112.589C24.1132 112.601 24.0972 112.607 24.0772 112.607H21.3052C21.2852 112.607 21.2672 112.601 21.2512 112.589C21.2392 112.573 21.2332 112.555 21.2332 112.535V108.479C21.2332 108.459 21.2392 108.443 21.2512 108.431C21.2672 108.415 21.2852 108.407 21.3052 108.407H24.0772C24.0972 108.407 24.1132 108.415 24.1252 108.431C24.1412 108.443 24.1492 108.459 24.1492 108.479V109.061ZM25.1091 112.607C25.0891 112.607 25.0711 112.601 25.0551 112.589C25.0431 112.573 25.0371 112.555 25.0371 112.535V108.479C25.0371 108.459 25.0431 108.443 25.0551 108.431C25.0711 108.415 25.0891 108.407 25.1091 108.407H25.8111C25.8311 108.407 25.8471 108.415 25.8591 108.431C25.8751 108.443 25.8831 108.459 25.8831 108.479V111.851C25.8831 111.871 25.8931 111.881 25.9131 111.881H27.8751C27.8951 111.881 27.9111 111.889 27.9231 111.905C27.9391 111.917 27.9471 111.933 27.9471 111.953V112.535C27.9471 112.555 27.9391 112.573 27.9231 112.589C27.9111 112.601 27.8951 112.607 27.8751 112.607H25.1091ZM33.1879 109.061C33.1879 109.081 33.1799 109.099 33.1639 109.115C33.1519 109.127 33.1359 109.133 33.1159 109.133H31.1479C31.1279 109.133 31.1179 109.143 31.1179 109.163V110.093C31.1179 110.113 31.1279 110.123 31.1479 110.123H32.4379C32.4579 110.123 32.4739 110.131 32.4859 110.147C32.5019 110.159 32.5099 110.175 32.5099 110.195V110.777C32.5099 110.797 32.5019 110.815 32.4859 110.831C32.4739 110.843 32.4579 110.849 32.4379 110.849H31.1479C31.1279 110.849 31.1179 110.859 31.1179 110.879V111.851C31.1179 111.871 31.1279 111.881 31.1479 111.881H33.1159C33.1359 111.881 33.1519 111.889 33.1639 111.905C33.1799 111.917 33.1879 111.933 33.1879 111.953V112.535C33.1879 112.555 33.1799 112.573 33.1639 112.589C33.1519 112.601 33.1359 112.607 33.1159 112.607H30.3439C30.3239 112.607 30.3059 112.601 30.2899 112.589C30.2779 112.573 30.2719 112.555 30.2719 112.535V108.479C30.2719 108.459 30.2779 108.443 30.2899 108.431C30.3059 108.415 30.3239 108.407 30.3439 108.407H33.1159C33.1359 108.407 33.1519 108.415 33.1639 108.431C33.1799 108.443 33.1879 108.459 33.1879 108.479V109.061ZM34.1478 112.607C34.1278 112.607 34.1098 112.601 34.0938 112.589C34.0818 112.573 34.0758 112.555 34.0758 112.535V108.479C34.0758 108.459 34.0818 108.443 34.0938 108.431C34.1098 108.415 34.1278 108.407 34.1478 108.407H35.6478C35.9478 108.407 36.2098 108.461 36.4338 108.569C36.6618 108.673 36.8378 108.821 36.9618 109.013C37.0858 109.205 37.1478 109.427 37.1478 109.679V111.335C37.1478 111.587 37.0858 111.809 36.9618 112.001C36.8378 112.193 36.6618 112.343 36.4338 112.451C36.2098 112.555 35.9478 112.607 35.6478 112.607H34.1478ZM34.9218 111.851C34.9218 111.871 34.9318 111.881 34.9518 111.881H35.6778C35.8618 111.881 36.0098 111.819 36.1218 111.695C36.2378 111.571 36.2978 111.405 36.3018 111.197V109.817C36.3018 109.609 36.2438 109.443 36.1278 109.319C36.0158 109.195 35.8638 109.133 35.6718 109.133H34.9518C34.9318 109.133 34.9218 109.143 34.9218 109.163V111.851ZM39.5549 112.655C39.2469 112.655 38.9749 112.593 38.7389 112.469C38.5029 112.345 38.3189 112.173 38.1869 111.953C38.0589 111.729 37.9949 111.471 37.9949 111.179V109.835C37.9949 109.543 38.0589 109.285 38.1869 109.061C38.3189 108.837 38.5029 108.665 38.7389 108.545C38.9749 108.421 39.2469 108.359 39.5549 108.359C39.8589 108.359 40.1269 108.419 40.3589 108.539C40.5949 108.659 40.7769 108.823 40.9049 109.031C41.0369 109.235 41.1029 109.463 41.1029 109.715V109.757C41.1029 109.777 41.0949 109.795 41.0789 109.811C41.0669 109.823 41.0509 109.829 41.0309 109.829H40.3289C40.3089 109.829 40.2909 109.823 40.2749 109.811C40.2629 109.795 40.2569 109.777 40.2569 109.757V109.739C40.2569 109.555 40.1929 109.401 40.0649 109.277C39.9369 109.149 39.7669 109.085 39.5549 109.085C39.3389 109.085 39.1649 109.153 39.0329 109.289C38.9049 109.421 38.8409 109.595 38.8409 109.811V111.203C38.8409 111.419 38.9109 111.595 39.0509 111.731C39.1909 111.863 39.3689 111.929 39.5849 111.929C39.7929 111.929 39.9589 111.875 40.0829 111.767C40.2069 111.655 40.2689 111.501 40.2689 111.305V111.035C40.2689 111.015 40.2589 111.005 40.2389 111.005H39.5669C39.5469 111.005 39.5289 110.999 39.5129 110.987C39.5009 110.971 39.4949 110.953 39.4949 110.933V110.381C39.4949 110.361 39.5009 110.345 39.5129 110.333C39.5289 110.317 39.5469 110.309 39.5669 110.309H41.0309C41.0509 110.309 41.0669 110.317 41.0789 110.333C41.0949 110.345 41.1029 110.361 41.1029 110.381V111.173C41.1029 111.477 41.0389 111.741 40.9109 111.965C40.7829 112.189 40.6009 112.361 40.3649 112.481C40.1329 112.597 39.8629 112.655 39.5549 112.655ZM44.9687 109.061C44.9687 109.081 44.9607 109.099 44.9447 109.115C44.9327 109.127 44.9167 109.133 44.8967 109.133H42.9287C42.9087 109.133 42.8987 109.143 42.8987 109.163V110.093C42.8987 110.113 42.9087 110.123 42.9287 110.123H44.2187C44.2387 110.123 44.2547 110.131 44.2667 110.147C44.2827 110.159 44.2907 110.175 44.2907 110.195V110.777C44.2907 110.797 44.2827 110.815 44.2667 110.831C44.2547 110.843 44.2387 110.849 44.2187 110.849H42.9287C42.9087 110.849 42.8987 110.859 42.8987 110.879V111.851C42.8987 111.871 42.9087 111.881 42.9287 111.881H44.8967C44.9167 111.881 44.9327 111.889 44.9447 111.905C44.9607 111.917 44.9687 111.933 44.9687 111.953V112.535C44.9687 112.555 44.9607 112.573 44.9447 112.589C44.9327 112.601 44.9167 112.607 44.8967 112.607H42.1247C42.1047 112.607 42.0867 112.601 42.0707 112.589C42.0587 112.573 42.0527 112.555 42.0527 112.535V108.479C42.0527 108.459 42.0587 108.443 42.0707 108.431C42.0867 108.415 42.1047 108.407 42.1247 108.407H44.8967C44.9167 108.407 44.9327 108.415 44.9447 108.431C44.9607 108.443 44.9687 108.459 44.9687 108.479V109.061ZM48.7978 112.655C48.4778 112.655 48.1978 112.605 47.9578 112.505C47.7178 112.401 47.5318 112.255 47.3998 112.067C47.2718 111.875 47.2078 111.653 47.2078 111.401V111.269C47.2078 111.249 47.2138 111.233 47.2258 111.221C47.2418 111.205 47.2598 111.197 47.2798 111.197H47.9638C47.9838 111.197 47.9998 111.205 48.0118 111.221C48.0278 111.233 48.0358 111.249 48.0358 111.269V111.359C48.0358 111.519 48.1098 111.655 48.2578 111.767C48.4058 111.875 48.6058 111.929 48.8578 111.929C49.0698 111.929 49.2278 111.885 49.3318 111.797C49.4358 111.705 49.4878 111.593 49.4878 111.461C49.4878 111.365 49.4558 111.285 49.3918 111.221C49.3278 111.153 49.2398 111.095 49.1278 111.047C49.0198 110.995 48.8458 110.925 48.6058 110.837C48.3378 110.745 48.1098 110.651 47.9218 110.555C47.7378 110.459 47.5818 110.329 47.4538 110.165C47.3298 109.997 47.2678 109.791 47.2678 109.547C47.2678 109.307 47.3298 109.097 47.4538 108.917C47.5778 108.737 47.7498 108.599 47.9698 108.503C48.1898 108.407 48.4438 108.359 48.7318 108.359C49.0358 108.359 49.3058 108.413 49.5418 108.521C49.7818 108.629 49.9678 108.781 50.0998 108.977C50.2358 109.169 50.3038 109.393 50.3038 109.649V109.739C50.3038 109.759 50.2958 109.777 50.2798 109.793C50.2678 109.805 50.2518 109.811 50.2318 109.811H49.5418C49.5218 109.811 49.5038 109.805 49.4878 109.793C49.4758 109.777 49.4698 109.759 49.4698 109.739V109.691C49.4698 109.523 49.3998 109.381 49.2598 109.265C49.1238 109.145 48.9358 109.085 48.6958 109.085C48.5078 109.085 48.3598 109.125 48.2518 109.205C48.1478 109.285 48.0958 109.395 48.0958 109.535C48.0958 109.635 48.1258 109.719 48.1858 109.787C48.2498 109.855 48.3418 109.917 48.4618 109.973C48.5858 110.025 48.7758 110.097 49.0318 110.189C49.3158 110.293 49.5378 110.385 49.6978 110.465C49.8618 110.545 50.0078 110.665 50.1358 110.825C50.2678 110.981 50.3338 111.185 50.3338 111.437C50.3338 111.813 50.1958 112.111 49.9198 112.331C49.6438 112.547 49.2698 112.655 48.7978 112.655ZM54.1422 109.061C54.1422 109.081 54.1342 109.099 54.1182 109.115C54.1062 109.127 54.0902 109.133 54.0702 109.133H52.1022C52.0822 109.133 52.0722 109.143 52.0722 109.163V110.093C52.0722 110.113 52.0822 110.123 52.1022 110.123H53.3922C53.4122 110.123 53.4282 110.131 53.4402 110.147C53.4562 110.159 53.4642 110.175 53.4642 110.195V110.777C53.4642 110.797 53.4562 110.815 53.4402 110.831C53.4282 110.843 53.4122 110.849 53.3922 110.849H52.1022C52.0822 110.849 52.0722 110.859 52.0722 110.879V111.851C52.0722 111.871 52.0822 111.881 52.1022 111.881H54.0702C54.0902 111.881 54.1062 111.889 54.1182 111.905C54.1342 111.917 54.1422 111.933 54.1422 111.953V112.535C54.1422 112.555 54.1342 112.573 54.1182 112.589C54.1062 112.601 54.0902 112.607 54.0702 112.607H51.2982C51.2782 112.607 51.2602 112.601 51.2442 112.589C51.2322 112.573 51.2262 112.555 51.2262 112.535V108.479C51.2262 108.459 51.2322 108.443 51.2442 108.431C51.2602 108.415 51.2782 108.407 51.2982 108.407H54.0702C54.0902 108.407 54.1062 108.415 54.1182 108.431C54.1342 108.443 54.1422 108.459 54.1422 108.479V109.061ZM57.3341 112.607C57.2941 112.607 57.2661 112.589 57.2501 112.553L56.5001 110.891C56.4921 110.875 56.4801 110.867 56.4641 110.867H55.9061C55.8861 110.867 55.8761 110.877 55.8761 110.897V112.535C55.8761 112.555 55.8681 112.573 55.8521 112.589C55.8401 112.601 55.8241 112.607 55.8041 112.607H55.1021C55.0821 112.607 55.0641 112.601 55.0481 112.589C55.0361 112.573 55.0301 112.555 55.0301 112.535V108.479C55.0301 108.459 55.0361 108.443 55.0481 108.431C55.0641 108.415 55.0821 108.407 55.1021 108.407H56.8181C57.0741 108.407 57.2981 108.459 57.4901 108.563C57.6861 108.667 57.8361 108.815 57.9401 109.007C58.0481 109.199 58.1021 109.421 58.1021 109.673C58.1021 109.945 58.0341 110.179 57.8981 110.375C57.7621 110.567 57.5721 110.703 57.3281 110.783C57.3081 110.791 57.3021 110.805 57.3101 110.825L58.1261 112.523C58.1341 112.539 58.1381 112.551 58.1381 112.559C58.1381 112.591 58.1161 112.607 58.0721 112.607H57.3341ZM55.9061 109.133C55.8861 109.133 55.8761 109.143 55.8761 109.163V110.189C55.8761 110.209 55.8861 110.219 55.9061 110.219H56.6921C56.8601 110.219 56.9961 110.169 57.1001 110.069C57.2081 109.969 57.2621 109.839 57.2621 109.679C57.2621 109.519 57.2081 109.389 57.1001 109.289C56.9961 109.185 56.8601 109.133 56.6921 109.133H55.9061ZM59.9968 112.607C59.9568 112.607 59.9308 112.587 59.9188 112.547L58.6828 108.491L58.6768 108.467C58.6768 108.427 58.6988 108.407 58.7428 108.407H59.4988C59.5428 108.407 59.5708 108.427 59.5828 108.467L60.3808 111.395C60.3848 111.407 60.3908 111.413 60.3988 111.413C60.4068 111.413 60.4128 111.407 60.4168 111.395L61.2028 108.467C61.2148 108.427 61.2428 108.407 61.2868 108.407H62.0248C62.0488 108.407 62.0668 108.415 62.0788 108.431C62.0908 108.447 62.0928 108.467 62.0848 108.491L60.8308 112.547C60.8188 112.587 60.7928 112.607 60.7528 112.607H59.9968ZM65.7941 109.061C65.7941 109.081 65.7861 109.099 65.7701 109.115C65.7581 109.127 65.7421 109.133 65.7221 109.133H63.7541C63.7341 109.133 63.7241 109.143 63.7241 109.163V110.093C63.7241 110.113 63.7341 110.123 63.7541 110.123H65.0441C65.0641 110.123 65.0801 110.131 65.0921 110.147C65.1081 110.159 65.1161 110.175 65.1161 110.195V110.777C65.1161 110.797 65.1081 110.815 65.0921 110.831C65.0801 110.843 65.0641 110.849 65.0441 110.849H63.7541C63.7341 110.849 63.7241 110.859 63.7241 110.879V111.851C63.7241 111.871 63.7341 111.881 63.7541 111.881H65.7221C65.7421 111.881 65.7581 111.889 65.7701 111.905C65.7861 111.917 65.7941 111.933 65.7941 111.953V112.535C65.7941 112.555 65.7861 112.573 65.7701 112.589C65.7581 112.601 65.7421 112.607 65.7221 112.607H62.9501C62.9301 112.607 62.9121 112.601 62.8961 112.589C62.8841 112.573 62.8781 112.555 62.8781 112.535V108.479C62.8781 108.459 62.8841 108.443 62.8961 108.431C62.9121 108.415 62.9301 108.407 62.9501 108.407H65.7221C65.7421 108.407 65.7581 108.415 65.7701 108.431C65.7861 108.443 65.7941 108.459 65.7941 108.479V109.061ZM68.986 112.607C68.946 112.607 68.918 112.589 68.902 112.553L68.152 110.891C68.144 110.875 68.132 110.867 68.116 110.867H67.558C67.538 110.867 67.528 110.877 67.528 110.897V112.535C67.528 112.555 67.52 112.573 67.504 112.589C67.492 112.601 67.476 112.607 67.456 112.607H66.754C66.734 112.607 66.716 112.601 66.7 112.589C66.688 112.573 66.682 112.555 66.682 112.535V108.479C66.682 108.459 66.688 108.443 66.7 108.431C66.716 108.415 66.734 108.407 66.754 108.407H68.47C68.726 108.407 68.95 108.459 69.142 108.563C69.338 108.667 69.488 108.815 69.592 109.007C69.7 109.199 69.754 109.421 69.754 109.673C69.754 109.945 69.686 110.179 69.55 110.375C69.414 110.567 69.224 110.703 68.98 110.783C68.96 110.791 68.954 110.805 68.962 110.825L69.778 112.523C69.786 112.539 69.79 112.551 69.79 112.559C69.79 112.591 69.768 112.607 69.724 112.607H68.986ZM67.558 109.133C67.538 109.133 67.528 109.143 67.528 109.163V110.189C67.528 110.209 67.538 110.219 67.558 110.219H68.344C68.512 110.219 68.648 110.169 68.752 110.069C68.86 109.969 68.914 109.839 68.914 109.679C68.914 109.519 68.86 109.389 68.752 109.289C68.648 109.185 68.512 109.133 68.344 109.133H67.558ZM72.1076 112.655C71.7876 112.655 71.5076 112.605 71.2676 112.505C71.0276 112.401 70.8416 112.255 70.7096 112.067C70.5816 111.875 70.5176 111.653 70.5176 111.401V111.269C70.5176 111.249 70.5236 111.233 70.5356 111.221C70.5516 111.205 70.5696 111.197 70.5896 111.197H71.2736C71.2936 111.197 71.3096 111.205 71.3216 111.221C71.3376 111.233 71.3456 111.249 71.3456 111.269V111.359C71.3456 111.519 71.4196 111.655 71.5676 111.767C71.7156 111.875 71.9156 111.929 72.1676 111.929C72.3796 111.929 72.5376 111.885 72.6416 111.797C72.7456 111.705 72.7976 111.593 72.7976 111.461C72.7976 111.365 72.7656 111.285 72.7016 111.221C72.6376 111.153 72.5496 111.095 72.4376 111.047C72.3296 110.995 72.1556 110.925 71.9156 110.837C71.6476 110.745 71.4196 110.651 71.2316 110.555C71.0476 110.459 70.8916 110.329 70.7636 110.165C70.6396 109.997 70.5776 109.791 70.5776 109.547C70.5776 109.307 70.6396 109.097 70.7636 108.917C70.8876 108.737 71.0596 108.599 71.2796 108.503C71.4996 108.407 71.7536 108.359 72.0416 108.359C72.3456 108.359 72.6156 108.413 72.8516 108.521C73.0916 108.629 73.2776 108.781 73.4096 108.977C73.5456 109.169 73.6136 109.393 73.6136 109.649V109.739C73.6136 109.759 73.6056 109.777 73.5896 109.793C73.5776 109.805 73.5616 109.811 73.5416 109.811H72.8516C72.8316 109.811 72.8136 109.805 72.7976 109.793C72.7856 109.777 72.7796 109.759 72.7796 109.739V109.691C72.7796 109.523 72.7096 109.381 72.5696 109.265C72.4336 109.145 72.2456 109.085 72.0056 109.085C71.8176 109.085 71.6696 109.125 71.5616 109.205C71.4576 109.285 71.4056 109.395 71.4056 109.535C71.4056 109.635 71.4356 109.719 71.4956 109.787C71.5596 109.855 71.6516 109.917 71.7716 109.973C71.8956 110.025 72.0856 110.097 72.3416 110.189C72.6256 110.293 72.8476 110.385 73.0076 110.465C73.1716 110.545 73.3176 110.665 73.4456 110.825C73.5776 110.981 73.6436 111.185 73.6436 111.437C73.6436 111.813 73.5056 112.111 73.2296 112.331C72.9536 112.547 72.5796 112.655 72.1076 112.655Z" fill="#CBD5E0"/>
<g filter="url(#filter4_dd_274_31419)">
<path d="M75.4491 60.1227C75.0743 59.745 75.0766 59.1351 75.4542 58.7603L81.6079 52.6528C81.9855 52.2781 82.5955 52.2804 82.9702 52.658C83.345 53.0356 83.3427 53.6455 82.9651 54.0203L77.4952 59.4492L82.924 64.9191C83.2988 65.2968 83.2965 65.9067 82.9189 66.2815C82.5413 66.6563 81.9313 66.654 81.5565 66.2763L75.4491 60.1227ZM357.012 59.1943C357.389 59.57 357.39 60.1799 357.014 60.5567L350.892 66.696C350.517 67.0727 349.907 67.0736 349.53 66.6979C349.153 66.3223 349.152 65.7123 349.528 65.3356L354.97 59.8784L349.513 54.4367C349.136 54.061 349.135 53.4511 349.511 53.0743C349.886 52.6976 350.496 52.6967 350.873 53.0724L357.012 59.1943ZM76.1364 58.4807C129.459 58.6818 260.149 59.0497 356.331 58.9131L356.333 60.8398C260.146 60.9764 129.453 60.6084 76.1292 60.4074L76.1364 58.4807Z" fill="#F56565"/>
</g>
<rect x="370.199" y="0.914551" width="60.6" height="14.8" rx="4.8" fill="#1A202C"/>
<path d="M378.374 12.1271C378.187 12.3615 377.827 12.3615 377.64 12.1271C376.843 11.1115 375.015 8.68958 375.015 7.31458C375.015 5.65833 376.359 4.31458 378.015 4.31458C379.671 4.31458 381.015 5.65833 381.015 7.31458C381.015 8.68958 379.187 11.1115 378.374 12.1271ZM378.015 8.31458C378.562 8.31458 379.015 7.87708 379.015 7.31458C379.015 6.7677 378.562 6.31458 378.015 6.31458C377.452 6.31458 377.015 6.7677 377.015 7.31458C377.015 7.87708 377.452 8.31458 378.015 8.31458ZM387.12 5.81058C387.12 5.78391 387.128 5.76257 387.144 5.74657C387.166 5.72524 387.19 5.71457 387.216 5.71457H388.152C388.179 5.71457 388.2 5.72524 388.216 5.74657C388.238 5.76257 388.248 5.78391 388.248 5.81058V11.2186C388.248 11.2452 388.238 11.2692 388.216 11.2906C388.2 11.3066 388.179 11.3146 388.152 11.3146H387.248C387.195 11.3146 387.158 11.2932 387.136 11.2506L385.064 7.82658C385.054 7.81058 385.043 7.80524 385.032 7.81058C385.022 7.81058 385.016 7.82124 385.016 7.84258L385.032 11.2186C385.032 11.2452 385.022 11.2692 385 11.2906C384.984 11.3066 384.963 11.3146 384.936 11.3146H384C383.974 11.3146 383.95 11.3066 383.928 11.2906C383.912 11.2692 383.904 11.2452 383.904 11.2186V5.81058C383.904 5.78391 383.912 5.76257 383.928 5.74657C383.95 5.72524 383.974 5.71457 384 5.71457H384.904C384.958 5.71457 384.995 5.73591 385.016 5.77857L387.08 9.18658C387.091 9.20258 387.102 9.21058 387.112 9.21058C387.123 9.20524 387.128 9.19191 387.128 9.17058L387.12 5.81058ZM390.177 11.3466C389.995 11.3466 389.843 11.2879 389.721 11.1706C389.603 11.0479 389.545 10.8959 389.545 10.7146C389.545 10.5279 389.603 10.3759 389.721 10.2586C389.838 10.1412 389.99 10.0826 390.177 10.0826C390.363 10.0826 390.515 10.1412 390.633 10.2586C390.75 10.3759 390.809 10.5279 390.809 10.7146C390.809 10.8959 390.747 11.0479 390.625 11.1706C390.507 11.2879 390.358 11.3466 390.177 11.3466ZM393.38 11.3146C393.327 11.3146 393.292 11.2879 393.276 11.2346L391.628 5.82657L391.62 5.79457C391.62 5.74124 391.649 5.71457 391.708 5.71457H392.716C392.775 5.71457 392.812 5.74124 392.828 5.79457L393.892 9.69858C393.897 9.71458 393.905 9.72258 393.916 9.72258C393.927 9.72258 393.935 9.71458 393.94 9.69858L394.988 5.79457C395.004 5.74124 395.041 5.71457 395.1 5.71457H396.084C396.116 5.71457 396.14 5.72524 396.156 5.74657C396.172 5.76791 396.175 5.79457 396.164 5.82657L394.492 11.2346C394.476 11.2879 394.441 11.3146 394.388 11.3146H393.38ZM397.364 11.3146C397.338 11.3146 397.314 11.3066 397.292 11.2906C397.276 11.2692 397.268 11.2452 397.268 11.2186V5.81058C397.268 5.78391 397.276 5.76257 397.292 5.74657C397.314 5.72524 397.338 5.71457 397.364 5.71457H398.3C398.327 5.71457 398.348 5.72524 398.364 5.74657C398.386 5.76257 398.396 5.78391 398.396 5.81058V11.2186C398.396 11.2452 398.386 11.2692 398.364 11.2906C398.348 11.3066 398.327 11.3146 398.3 11.3146H397.364ZM402.842 11.3146C402.789 11.3146 402.751 11.2906 402.73 11.2426L401.73 9.02658C401.719 9.00524 401.703 8.99458 401.682 8.99458H400.938C400.911 8.99458 400.898 9.00791 400.898 9.03457V11.2186C400.898 11.2452 400.887 11.2692 400.866 11.2906C400.85 11.3066 400.829 11.3146 400.802 11.3146H399.866C399.839 11.3146 399.815 11.3066 399.794 11.2906C399.778 11.2692 399.77 11.2452 399.77 11.2186V5.81058C399.77 5.78391 399.778 5.76257 399.794 5.74657C399.815 5.72524 399.839 5.71457 399.866 5.71457H402.154C402.495 5.71457 402.794 5.78391 403.05 5.92257C403.311 6.06124 403.511 6.25858 403.65 6.51458C403.794 6.77057 403.866 7.06657 403.866 7.40258C403.866 7.76524 403.775 8.07724 403.594 8.33858C403.413 8.59458 403.159 8.77591 402.834 8.88258C402.807 8.89324 402.799 8.91191 402.81 8.93858L403.898 11.2026C403.909 11.2239 403.914 11.2399 403.914 11.2506C403.914 11.2932 403.885 11.3146 403.826 11.3146H402.842ZM400.938 6.68257C400.911 6.68257 400.898 6.69591 400.898 6.72258V8.09057C400.898 8.11724 400.911 8.13057 400.938 8.13057H401.986C402.21 8.13057 402.391 8.06391 402.53 7.93058C402.674 7.79724 402.746 7.62391 402.746 7.41057C402.746 7.19724 402.674 7.02391 402.53 6.89057C402.391 6.75191 402.21 6.68257 401.986 6.68257H400.938ZM407.052 11.3786C406.641 11.3786 406.279 11.2959 405.964 11.1306C405.649 10.9652 405.404 10.7359 405.228 10.4426C405.057 10.1439 404.972 9.79991 404.972 9.41058V7.61858C404.972 7.22924 405.057 6.88524 405.228 6.58658C405.404 6.28791 405.649 6.05857 405.964 5.89857C406.279 5.73324 406.641 5.65058 407.052 5.65058C407.457 5.65058 407.815 5.73058 408.124 5.89057C408.439 6.05058 408.681 6.26924 408.852 6.54658C409.028 6.81858 409.116 7.12258 409.116 7.45858V7.51458C409.116 7.54124 409.105 7.56524 409.084 7.58658C409.068 7.60257 409.047 7.61057 409.02 7.61057H408.084C408.057 7.61057 408.033 7.60257 408.012 7.58658C407.996 7.56524 407.988 7.54124 407.988 7.51458V7.49058C407.988 7.24524 407.903 7.03991 407.732 6.87458C407.561 6.70391 407.335 6.61858 407.052 6.61858C406.764 6.61858 406.532 6.70924 406.356 6.89057C406.185 7.06657 406.1 7.29857 406.1 7.58658V9.44258C406.1 9.73058 406.193 9.96524 406.38 10.1466C406.567 10.3226 406.804 10.4106 407.092 10.4106C407.369 10.4106 407.591 10.3386 407.756 10.1946C407.921 10.0452 408.004 9.83991 408.004 9.57858V9.21858C408.004 9.19191 407.991 9.17858 407.964 9.17858H407.068C407.041 9.17858 407.017 9.17058 406.996 9.15458C406.98 9.13324 406.972 9.10924 406.972 9.08258V8.34658C406.972 8.31991 406.98 8.29858 406.996 8.28258C407.017 8.26124 407.041 8.25058 407.068 8.25058H409.02C409.047 8.25058 409.068 8.26124 409.084 8.28258C409.105 8.29858 409.116 8.31991 409.116 8.34658V9.40258C409.116 9.80791 409.031 10.1599 408.86 10.4586C408.689 10.7572 408.447 10.9866 408.132 11.1466C407.823 11.3012 407.463 11.3786 407.052 11.3786ZM410.479 11.3146C410.452 11.3146 410.428 11.3066 410.407 11.2906C410.391 11.2692 410.383 11.2452 410.383 11.2186V5.81058C410.383 5.78391 410.391 5.76257 410.407 5.74657C410.428 5.72524 410.452 5.71457 410.479 5.71457H411.415C411.441 5.71457 411.463 5.72524 411.479 5.74657C411.5 5.76257 411.511 5.78391 411.511 5.81058V11.2186C411.511 11.2452 411.5 11.2692 411.479 11.2906C411.463 11.3066 411.441 11.3146 411.415 11.3146H410.479ZM416.1 5.81058C416.1 5.78391 416.108 5.76257 416.124 5.74657C416.145 5.72524 416.169 5.71457 416.196 5.71457H417.132C417.159 5.71457 417.18 5.72524 417.196 5.74657C417.217 5.76257 417.228 5.78391 417.228 5.81058V11.2186C417.228 11.2452 417.217 11.2692 417.196 11.2906C417.18 11.3066 417.159 11.3146 417.132 11.3146H416.228C416.175 11.3146 416.137 11.2932 416.116 11.2506L414.044 7.82658C414.033 7.81058 414.023 7.80524 414.012 7.81058C414.001 7.81058 413.996 7.82124 413.996 7.84258L414.012 11.2186C414.012 11.2452 414.001 11.2692 413.98 11.2906C413.964 11.3066 413.943 11.3146 413.916 11.3146H412.98C412.953 11.3146 412.929 11.3066 412.908 11.2906C412.892 11.2692 412.884 11.2452 412.884 11.2186V5.81058C412.884 5.78391 412.892 5.76257 412.908 5.74657C412.929 5.72524 412.953 5.71457 412.98 5.71457H413.884C413.937 5.71457 413.975 5.73591 413.996 5.77857L416.06 9.18658C416.071 9.20258 416.081 9.21058 416.092 9.21058C416.103 9.20524 416.108 9.19191 416.108 9.17058L416.1 5.81058ZM418.7 11.3146C418.674 11.3146 418.65 11.3066 418.628 11.2906C418.612 11.2692 418.604 11.2452 418.604 11.2186V5.81058C418.604 5.78391 418.612 5.76257 418.628 5.74657C418.65 5.72524 418.674 5.71457 418.7 5.71457H419.636C419.663 5.71457 419.684 5.72524 419.7 5.74657C419.722 5.76257 419.732 5.78391 419.732 5.81058V11.2186C419.732 11.2452 419.722 11.2692 419.7 11.2906C419.684 11.3066 419.663 11.3146 419.636 11.3146H418.7ZM424.666 11.3146C424.613 11.3146 424.578 11.2879 424.562 11.2346L424.322 10.4506C424.311 10.4292 424.298 10.4186 424.282 10.4186H422.314C422.298 10.4186 422.285 10.4292 422.274 10.4506L422.042 11.2346C422.026 11.2879 421.991 11.3146 421.938 11.3146H420.922C420.89 11.3146 420.866 11.3066 420.85 11.2906C420.834 11.2692 420.831 11.2399 420.842 11.2026L422.57 5.79457C422.586 5.74124 422.621 5.71457 422.674 5.71457H423.93C423.983 5.71457 424.018 5.74124 424.034 5.79457L425.762 11.2026C425.767 11.2132 425.77 11.2266 425.77 11.2426C425.77 11.2906 425.741 11.3146 425.682 11.3146H424.666ZM422.562 9.49858C422.557 9.53058 422.567 9.54658 422.594 9.54658H424.002C424.034 9.54658 424.045 9.53058 424.034 9.49858L423.314 7.12257C423.309 7.10124 423.301 7.09324 423.29 7.09858C423.279 7.09858 423.271 7.10658 423.266 7.12257L422.562 9.49858Z" fill="#F6AD55"/>
<g filter="url(#filter5_dd_274_31419)">
<path d="M400.484 89.6603C414.482 89.6603 425.83 84.7762 425.83 78.7515V70.4095H375.137V78.7515C375.137 84.7762 386.485 89.6603 400.484 89.6603Z" fill="url(#paint13_linear_274_31419)"/>
<ellipse cx="400.484" cy="70.4091" rx="25.3469" ry="8.9837" fill="url(#paint14_linear_274_31419)"/>
<ellipse cx="400.484" cy="70.4091" rx="25.3469" ry="8.9837" fill="url(#paint15_radial_274_31419)" fill-opacity="0.44"/>
<path d="M400.481 78.1095C413.771 78.1095 424.545 74.3651 424.545 69.7461V63.3506H376.418V69.7461C376.418 74.3651 387.192 78.1095 400.481 78.1095Z" fill="url(#paint16_linear_274_31419)"/>
<path d="M400.481 78.1095C413.771 78.1095 424.545 74.3651 424.545 69.7461V63.3506H376.418V69.7461C376.418 74.3651 387.192 78.1095 400.481 78.1095Z" fill="#C6D4DB" fill-opacity="0.284"/>
<path opacity="0.5" d="M400.481 75.4724C413.771 75.4724 424.545 71.728 424.545 67.109V60.7134H376.418V67.109C376.418 71.728 387.192 75.4724 400.481 75.4724Z" fill="url(#paint17_linear_274_31419)"/>
<path d="M400.484 74.2597C414.482 74.2597 425.83 70.1293 425.83 65.0341V56.2923H375.137V65.0341C375.137 70.1293 386.485 74.2597 400.484 74.2597Z" fill="url(#paint18_linear_274_31419)"/>
<ellipse cx="400.484" cy="55.6502" rx="25.3469" ry="9.62539" fill="url(#paint19_linear_274_31419)"/>
<ellipse cx="400.484" cy="55.6502" rx="25.3469" ry="9.62539" fill="url(#paint20_radial_274_31419)" fill-opacity="0.44"/>
<path d="M400.481 63.9925C413.771 63.9925 424.545 60.0853 424.545 55.2655V48.5919H376.418V55.2655C376.418 60.0853 387.192 63.9925 400.481 63.9925Z" fill="url(#paint21_linear_274_31419)"/>
<path d="M400.481 63.9925C413.771 63.9925 424.545 60.0853 424.545 55.2655V48.5919H376.418V55.2655C376.418 60.0853 387.192 63.9925 400.481 63.9925Z" fill="#C6D4DB" fill-opacity="0.284"/>
<path opacity="0.5" d="M400.481 61.0622C413.771 61.0622 424.545 57.155 424.545 52.3352V45.6616H376.418V52.3352C376.418 57.155 387.192 61.0622 400.481 61.0622Z" fill="url(#paint22_linear_274_31419)"/>
<path d="M400.484 59.8021C414.482 59.8021 425.83 55.6097 425.83 50.4382V41.5652H375.137V50.4382C375.137 55.6097 386.485 59.8021 400.484 59.8021Z" fill="url(#paint23_linear_274_31419)"/>
<ellipse cx="400.484" cy="41.2714" rx="25.3469" ry="9.36392" fill="url(#paint24_linear_274_31419)"/>
<path d="M425.157 41.2714C425.157 42.2984 424.596 43.3606 423.395 44.4089C422.197 45.456 420.423 46.4297 418.173 47.2608C413.679 48.9213 407.425 49.9617 400.484 49.9617C393.543 49.9617 387.289 48.9213 382.794 47.2608C380.544 46.4297 378.771 45.456 377.572 44.4089C376.371 43.3606 375.81 42.2984 375.81 41.2714C375.81 40.2444 376.371 39.1822 377.572 38.1339C378.771 37.0868 380.544 36.1131 382.794 35.2819C387.289 33.6215 393.543 32.5811 400.484 32.5811C407.425 32.5811 413.679 33.6215 418.173 35.2819C420.423 36.1131 422.197 37.0868 423.395 38.1339C424.596 39.1822 425.157 40.2444 425.157 41.2714Z" stroke="url(#paint25_radial_274_31419)" stroke-opacity="0.46" stroke-width="1.34717"/>
</g>
<rect x="380.199" y="105.66" width="40.6" height="11.8" rx="4.8" fill="#1A202C"/>
<path d="M385.656 114.06C385.636 114.06 385.618 114.054 385.602 114.042C385.59 114.026 385.584 114.008 385.584 113.988V109.932C385.584 109.912 385.59 109.896 385.602 109.884C385.618 109.868 385.636 109.86 385.656 109.86H387.156C387.456 109.86 387.718 109.914 387.942 110.022C388.17 110.126 388.346 110.274 388.47 110.466C388.594 110.658 388.656 110.88 388.656 111.132V112.788C388.656 113.04 388.594 113.262 388.47 113.454C388.346 113.646 388.17 113.796 387.942 113.904C387.718 114.008 387.456 114.06 387.156 114.06H385.656ZM386.43 113.304C386.43 113.324 386.44 113.334 386.46 113.334H387.186C387.37 113.334 387.518 113.272 387.63 113.148C387.746 113.024 387.806 112.858 387.81 112.65V111.27C387.81 111.062 387.752 110.896 387.636 110.772C387.524 110.648 387.372 110.586 387.18 110.586H386.46C386.44 110.586 386.43 110.596 386.43 110.616V113.304ZM392.034 114.06C391.994 114.06 391.968 114.04 391.956 114L391.776 113.412C391.768 113.396 391.758 113.388 391.746 113.388H390.27C390.258 113.388 390.248 113.396 390.24 113.412L390.066 114C390.054 114.04 390.028 114.06 389.988 114.06H389.226C389.202 114.06 389.184 114.054 389.172 114.042C389.16 114.026 389.158 114.004 389.166 113.976L390.462 109.92C390.474 109.88 390.5 109.86 390.54 109.86H391.482C391.522 109.86 391.548 109.88 391.56 109.92L392.856 113.976C392.86 113.984 392.862 113.994 392.862 114.006C392.862 114.042 392.84 114.06 392.796 114.06H392.034ZM390.456 112.698C390.452 112.722 390.46 112.734 390.48 112.734H391.536C391.56 112.734 391.568 112.722 391.56 112.698L391.02 110.916C391.016 110.9 391.01 110.894 391.002 110.898C390.994 110.898 390.988 110.904 390.984 110.916L390.456 112.698ZM396.072 109.86C396.092 109.86 396.108 109.868 396.12 109.884C396.136 109.896 396.144 109.912 396.144 109.932V110.52C396.144 110.54 396.136 110.558 396.12 110.574C396.108 110.586 396.092 110.592 396.072 110.592H394.998C394.978 110.592 394.968 110.602 394.968 110.622V113.988C394.968 114.008 394.96 114.026 394.944 114.042C394.932 114.054 394.916 114.06 394.896 114.06H394.194C394.174 114.06 394.156 114.054 394.14 114.042C394.128 114.026 394.122 114.008 394.122 113.988V110.622C394.122 110.602 394.112 110.592 394.092 110.592H393.048C393.028 110.592 393.01 110.586 392.994 110.574C392.982 110.558 392.976 110.54 392.976 110.52V109.932C392.976 109.912 392.982 109.896 392.994 109.884C393.01 109.868 393.028 109.86 393.048 109.86H396.072ZM399.267 114.06C399.227 114.06 399.201 114.04 399.189 114L399.009 113.412C399.001 113.396 398.991 113.388 398.979 113.388H397.503C397.491 113.388 397.481 113.396 397.473 113.412L397.299 114C397.287 114.04 397.261 114.06 397.221 114.06H396.459C396.435 114.06 396.417 114.054 396.405 114.042C396.393 114.026 396.391 114.004 396.399 113.976L397.695 109.92C397.707 109.88 397.733 109.86 397.773 109.86H398.715C398.755 109.86 398.781 109.88 398.793 109.92L400.089 113.976C400.093 113.984 400.095 113.994 400.095 114.006C400.095 114.042 400.073 114.06 400.029 114.06H399.267ZM397.689 112.698C397.685 112.722 397.693 112.734 397.713 112.734H398.769C398.793 112.734 398.801 112.722 398.793 112.698L398.253 110.916C398.249 110.9 398.243 110.894 398.235 110.898C398.227 110.898 398.221 110.904 398.217 110.916L397.689 112.698ZM403.412 111.87C403.388 111.882 403.388 111.894 403.412 111.906C403.792 112.102 403.982 112.428 403.982 112.884C403.982 113.272 403.85 113.566 403.586 113.766C403.322 113.962 402.976 114.06 402.548 114.06H400.994C400.974 114.06 400.956 114.054 400.94 114.042C400.928 114.026 400.922 114.008 400.922 113.988V109.932C400.922 109.912 400.928 109.896 400.94 109.884C400.956 109.868 400.974 109.86 400.994 109.86H402.5C403.448 109.86 403.922 110.244 403.922 111.012C403.922 111.412 403.752 111.698 403.412 111.87ZM401.798 110.586C401.778 110.586 401.768 110.596 401.768 110.616V111.552C401.768 111.572 401.778 111.582 401.798 111.582H402.5C402.688 111.582 402.834 111.538 402.938 111.45C403.042 111.362 403.094 111.242 403.094 111.09C403.094 110.934 403.042 110.812 402.938 110.724C402.834 110.632 402.688 110.586 402.5 110.586H401.798ZM402.548 113.328C402.732 113.328 402.876 113.282 402.98 113.19C403.084 113.094 403.136 112.964 403.136 112.8C403.136 112.636 403.084 112.508 402.98 112.416C402.876 112.32 402.73 112.272 402.542 112.272H401.798C401.778 112.272 401.768 112.282 401.768 112.302V113.298C401.768 113.318 401.778 113.328 401.798 113.328H402.548ZM407.384 114.06C407.344 114.06 407.318 114.04 407.306 114L407.126 113.412C407.118 113.396 407.108 113.388 407.096 113.388H405.62C405.608 113.388 405.598 113.396 405.59 113.412L405.416 114C405.404 114.04 405.378 114.06 405.338 114.06H404.576C404.552 114.06 404.534 114.054 404.522 114.042C404.51 114.026 404.508 114.004 404.516 113.976L405.812 109.92C405.824 109.88 405.85 109.86 405.89 109.86H406.832C406.872 109.86 406.898 109.88 406.91 109.92L408.206 113.976C408.21 113.984 408.212 113.994 408.212 114.006C408.212 114.042 408.19 114.06 408.146 114.06H407.384ZM405.806 112.698C405.802 112.722 405.81 112.734 405.83 112.734H406.886C406.91 112.734 406.918 112.722 406.91 112.698L406.37 110.916C406.366 110.9 406.36 110.894 406.352 110.898C406.344 110.898 406.338 110.904 406.334 110.916L405.806 112.698ZM410.216 114.108C409.896 114.108 409.616 114.058 409.376 113.958C409.136 113.854 408.95 113.708 408.818 113.52C408.69 113.328 408.626 113.106 408.626 112.854V112.722C408.626 112.702 408.632 112.686 408.644 112.674C408.66 112.658 408.678 112.65 408.698 112.65H409.382C409.402 112.65 409.418 112.658 409.43 112.674C409.446 112.686 409.454 112.702 409.454 112.722V112.812C409.454 112.972 409.528 113.108 409.676 113.22C409.824 113.328 410.024 113.382 410.276 113.382C410.488 113.382 410.646 113.338 410.75 113.25C410.854 113.158 410.906 113.046 410.906 112.914C410.906 112.818 410.874 112.738 410.81 112.674C410.746 112.606 410.658 112.548 410.546 112.5C410.438 112.448 410.264 112.378 410.024 112.29C409.756 112.198 409.528 112.104 409.34 112.008C409.156 111.912 409 111.782 408.872 111.618C408.748 111.45 408.686 111.244 408.686 111C408.686 110.76 408.748 110.55 408.872 110.37C408.996 110.19 409.168 110.052 409.388 109.956C409.608 109.86 409.862 109.812 410.15 109.812C410.454 109.812 410.724 109.866 410.96 109.974C411.2 110.082 411.386 110.234 411.518 110.43C411.654 110.622 411.722 110.846 411.722 111.102V111.192C411.722 111.212 411.714 111.23 411.698 111.246C411.686 111.258 411.67 111.264 411.65 111.264H410.96C410.94 111.264 410.922 111.258 410.906 111.246C410.894 111.23 410.888 111.212 410.888 111.192V111.144C410.888 110.976 410.818 110.834 410.678 110.718C410.542 110.598 410.354 110.538 410.114 110.538C409.926 110.538 409.778 110.578 409.67 110.658C409.566 110.738 409.514 110.848 409.514 110.988C409.514 111.088 409.544 111.172 409.604 111.24C409.668 111.308 409.76 111.37 409.88 111.426C410.004 111.478 410.194 111.55 410.45 111.642C410.734 111.746 410.956 111.838 411.116 111.918C411.28 111.998 411.426 112.118 411.554 112.278C411.686 112.434 411.752 112.638 411.752 112.89C411.752 113.266 411.614 113.564 411.338 113.784C411.062 114 410.688 114.108 410.216 114.108ZM415.561 110.514C415.561 110.534 415.553 110.552 415.537 110.568C415.525 110.58 415.509 110.586 415.489 110.586H413.521C413.501 110.586 413.491 110.596 413.491 110.616V111.546C413.491 111.566 413.501 111.576 413.521 111.576H414.811C414.831 111.576 414.847 111.584 414.859 111.6C414.875 111.612 414.883 111.628 414.883 111.648V112.23C414.883 112.25 414.875 112.268 414.859 112.284C414.847 112.296 414.831 112.302 414.811 112.302H413.521C413.501 112.302 413.491 112.312 413.491 112.332V113.304C413.491 113.324 413.501 113.334 413.521 113.334H415.489C415.509 113.334 415.525 113.342 415.537 113.358C415.553 113.37 415.561 113.386 415.561 113.406V113.988C415.561 114.008 415.553 114.026 415.537 114.042C415.525 114.054 415.509 114.06 415.489 114.06H412.717C412.697 114.06 412.679 114.054 412.663 114.042C412.651 114.026 412.645 114.008 412.645 113.988V109.932C412.645 109.912 412.651 109.896 412.663 109.884C412.679 109.868 412.697 109.86 412.717 109.86H415.489C415.509 109.86 415.525 109.868 415.537 109.884C415.553 109.896 415.561 109.912 415.561 109.932V110.514Z" fill="#CBD5E0"/>
<defs>
<filter id="filter0_dd_274_31419" x="12.8761" y="31.7145" width="53.2516" height="59.6247" filterUnits="userSpaceOnUse" color-interpolation-filters="sRGB">
<feFlood flood-opacity="0" result="BackgroundImageFix"/>
<feColorMatrix in="SourceAlpha" type="matrix" values="0 0 0 0 0 0 0 0 0 0 0 0 0 0 0 0 0 0 127 0" result="hardAlpha"/>
<feOffset dy="1.95772"/>
<feGaussianBlur stdDeviation="0.587316"/>
<feColorMatrix type="matrix" values="0 0 0 0 0.0901961 0 0 0 0 0.168627 0 0 0 0 0.301961 0 0 0 0.08 0"/>
<feBlend mode="normal" in2="BackgroundImageFix" result="effect1_dropShadow_274_31419"/>
<feColorMatrix in="SourceAlpha" type="matrix" values="0 0 0 0 0 0 0 0 0 0 0 0 0 0 0 0 0 0 127 0" result="hardAlpha"/>
<feOffset dy="1.17463"/>
<feGaussianBlur stdDeviation="0.391544"/>
<feColorMatrix type="matrix" values="0 0 0 0 0.0901961 0 0 0 0 0.168627 0 0 0 0 0.301961 0 0 0 0.04 0"/>
<feBlend mode="normal" in2="effect1_dropShadow_274_31419" result="effect2_dropShadow_274_31419"/>
<feBlend mode="normal" in="SourceGraphic" in2="effect2_dropShadow_274_31419" result="shape"/>
</filter>
<filter id="filter1_iiii_274_31419" x="19.3438" y="55.3192" width="3.82422" height="8.60726" filterUnits="userSpaceOnUse" color-interpolation-filters="sRGB">
<feFlood flood-opacity="0" result="BackgroundImageFix"/>
<feBlend mode="normal" in="SourceGraphic" in2="BackgroundImageFix" result="shape"/>
<feColorMatrix in="SourceAlpha" type="matrix" values="0 0 0 0 0 0 0 0 0 0 0 0 0 0 0 0 0 0 127 0" result="hardAlpha"/>
<feOffset dy="0.593209"/>
<feGaussianBlur stdDeviation="0.365051"/>
<feComposite in2="hardAlpha" operator="arithmetic" k2="-1" k3="1"/>
<feColorMatrix type="matrix" values="0 0 0 0 0 0 0 0 0 0 0 0 0 0 0 0 0 0 0.0562291 0"/>
<feBlend mode="normal" in2="shape" result="effect1_innerShadow_274_31419"/>
<feColorMatrix in="SourceAlpha" type="matrix" values="0 0 0 0 0 0 0 0 0 0 0 0 0 0 0 0 0 0 127 0" result="hardAlpha"/>
<feOffset dy="1.42556"/>
<feGaussianBlur stdDeviation="0.877269"/>
<feComposite in2="hardAlpha" operator="arithmetic" k2="-1" k3="1"/>
<feColorMatrix type="matrix" values="0 0 0 0 0 0 0 0 0 0 0 0 0 0 0 0 0 0 0.0807786 0"/>
<feBlend mode="normal" in2="effect1_innerShadow_274_31419" result="effect2_innerShadow_274_31419"/>
<feColorMatrix in="SourceAlpha" type="matrix" values="0 0 0 0 0 0 0 0 0 0 0 0 0 0 0 0 0 0 127 0" result="hardAlpha"/>
<feOffset dy="2.68421"/>
<feGaussianBlur stdDeviation="1.65182"/>
<feComposite in2="hardAlpha" operator="arithmetic" k2="-1" k3="1"/>
<feColorMatrix type="matrix" values="0 0 0 0 0 0 0 0 0 0 0 0 0 0 0 0 0 0 0.1 0"/>
<feBlend mode="normal" in2="effect2_innerShadow_274_31419" result="effect3_innerShadow_274_31419"/>
<feColorMatrix in="SourceAlpha" type="matrix" values="0 0 0 0 0 0 0 0 0 0 0 0 0 0 0 0 0 0 127 0" result="hardAlpha"/>
<feOffset dy="4.78817"/>
<feGaussianBlur stdDeviation="2.94657"/>
<feComposite in2="hardAlpha" operator="arithmetic" k2="-1" k3="1"/>
<feColorMatrix type="matrix" values="0 0 0 0 0 0 0 0 0 0 0 0 0 0 0 0 0 0 0.119221 0"/>
<feBlend mode="normal" in2="effect3_innerShadow_274_31419" result="effect4_innerShadow_274_31419"/>
</filter>
<filter id="filter2_iiii_274_31419" x="24.2617" y="55.3192" width="3.82422" height="8.60726" filterUnits="userSpaceOnUse" color-interpolation-filters="sRGB">
<feFlood flood-opacity="0" result="BackgroundImageFix"/>
<feBlend mode="normal" in="SourceGraphic" in2="BackgroundImageFix" result="shape"/>
<feColorMatrix in="SourceAlpha" type="matrix" values="0 0 0 0 0 0 0 0 0 0 0 0 0 0 0 0 0 0 127 0" result="hardAlpha"/>
<feOffset dy="0.593209"/>
<feGaussianBlur stdDeviation="0.365051"/>
<feComposite in2="hardAlpha" operator="arithmetic" k2="-1" k3="1"/>
<feColorMatrix type="matrix" values="0 0 0 0 0 0 0 0 0 0 0 0 0 0 0 0 0 0 0.0562291 0"/>
<feBlend mode="normal" in2="shape" result="effect1_innerShadow_274_31419"/>
<feColorMatrix in="SourceAlpha" type="matrix" values="0 0 0 0 0 0 0 0 0 0 0 0 0 0 0 0 0 0 127 0" result="hardAlpha"/>
<feOffset dy="1.42556"/>
<feGaussianBlur stdDeviation="0.877269"/>
<feComposite in2="hardAlpha" operator="arithmetic" k2="-1" k3="1"/>
<feColorMatrix type="matrix" values="0 0 0 0 0 0 0 0 0 0 0 0 0 0 0 0 0 0 0.0807786 0"/>
<feBlend mode="normal" in2="effect1_innerShadow_274_31419" result="effect2_innerShadow_274_31419"/>
<feColorMatrix in="SourceAlpha" type="matrix" values="0 0 0 0 0 0 0 0 0 0 0 0 0 0 0 0 0 0 127 0" result="hardAlpha"/>
<feOffset dy="2.68421"/>
<feGaussianBlur stdDeviation="1.65182"/>
<feComposite in2="hardAlpha" operator="arithmetic" k2="-1" k3="1"/>
<feColorMatrix type="matrix" values="0 0 0 0 0 0 0 0 0 0 0 0 0 0 0 0 0 0 0.1 0"/>
<feBlend mode="normal" in2="effect2_innerShadow_274_31419" result="effect3_innerShadow_274_31419"/>
<feColorMatrix in="SourceAlpha" type="matrix" values="0 0 0 0 0 0 0 0 0 0 0 0 0 0 0 0 0 0 127 0" result="hardAlpha"/>
<feOffset dy="4.78817"/>
<feGaussianBlur stdDeviation="2.94657"/>
<feComposite in2="hardAlpha" operator="arithmetic" k2="-1" k3="1"/>
<feColorMatrix type="matrix" values="0 0 0 0 0 0 0 0 0 0 0 0 0 0 0 0 0 0 0.119221 0"/>
<feBlend mode="normal" in2="effect3_innerShadow_274_31419" result="effect4_innerShadow_274_31419"/>
</filter>
<filter id="filter3_iiii_274_31419" x="46.4609" y="56.4052" width="14.0625" height="6.43539" filterUnits="userSpaceOnUse" color-interpolation-filters="sRGB">
<feFlood flood-opacity="0" result="BackgroundImageFix"/>
<feBlend mode="normal" in="SourceGraphic" in2="BackgroundImageFix" result="shape"/>
<feColorMatrix in="SourceAlpha" type="matrix" values="0 0 0 0 0 0 0 0 0 0 0 0 0 0 0 0 0 0 127 0" result="hardAlpha"/>
<feOffset dy="0.593209"/>
<feGaussianBlur stdDeviation="0.365051"/>
<feComposite in2="hardAlpha" operator="arithmetic" k2="-1" k3="1"/>
<feColorMatrix type="matrix" values="0 0 0 0 0 0 0 0 0 0 0 0 0 0 0 0 0 0 0.0562291 0"/>
<feBlend mode="normal" in2="shape" result="effect1_innerShadow_274_31419"/>
<feColorMatrix in="SourceAlpha" type="matrix" values="0 0 0 0 0 0 0 0 0 0 0 0 0 0 0 0 0 0 127 0" result="hardAlpha"/>
<feOffset dy="1.42556"/>
<feGaussianBlur stdDeviation="0.877269"/>
<feComposite in2="hardAlpha" operator="arithmetic" k2="-1" k3="1"/>
<feColorMatrix type="matrix" values="0 0 0 0 0 0 0 0 0 0 0 0 0 0 0 0 0 0 0.0807786 0"/>
<feBlend mode="normal" in2="effect1_innerShadow_274_31419" result="effect2_innerShadow_274_31419"/>
<feColorMatrix in="SourceAlpha" type="matrix" values="0 0 0 0 0 0 0 0 0 0 0 0 0 0 0 0 0 0 127 0" result="hardAlpha"/>
<feOffset dy="2.68421"/>
<feGaussianBlur stdDeviation="1.65182"/>
<feComposite in2="hardAlpha" operator="arithmetic" k2="-1" k3="1"/>
<feColorMatrix type="matrix" values="0 0 0 0 0 0 0 0 0 0 0 0 0 0 0 0 0 0 0.1 0"/>
<feBlend mode="normal" in2="effect2_innerShadow_274_31419" result="effect3_innerShadow_274_31419"/>
<feColorMatrix in="SourceAlpha" type="matrix" values="0 0 0 0 0 0 0 0 0 0 0 0 0 0 0 0 0 0 127 0" result="hardAlpha"/>
<feOffset dy="4.78817"/>
<feGaussianBlur stdDeviation="2.94657"/>
<feComposite in2="hardAlpha" operator="arithmetic" k2="-1" k3="1"/>
<feColorMatrix type="matrix" values="0 0 0 0 0 0 0 0 0 0 0 0 0 0 0 0 0 0 0.119221 0"/>
<feBlend mode="normal" in2="effect3_innerShadow_274_31419" result="effect4_innerShadow_274_31419"/>
</filter>
<filter id="filter4_dd_274_31419" x="73.8835" y="51.0888" width="284.698" height="19.1015" filterUnits="userSpaceOnUse" color-interpolation-filters="sRGB">
<feFlood flood-opacity="0" result="BackgroundImageFix"/>
<feColorMatrix in="SourceAlpha" type="matrix" values="0 0 0 0 0 0 0 0 0 0 0 0 0 0 0 0 0 0 127 0" result="hardAlpha"/>
<feOffset dy="1.92667"/>
<feGaussianBlur stdDeviation="0.642223"/>
<feColorMatrix type="matrix" values="0 0 0 0 0.0901961 0 0 0 0 0.168627 0 0 0 0 0.301961 0 0 0 0.08 0"/>
<feBlend mode="normal" in2="BackgroundImageFix" result="effect1_dropShadow_274_31419"/>
<feColorMatrix in="SourceAlpha" type="matrix" values="0 0 0 0 0 0 0 0 0 0 0 0 0 0 0 0 0 0 127 0" result="hardAlpha"/>
<feOffset/>
<feGaussianBlur stdDeviation="0.642223"/>
<feColorMatrix type="matrix" values="0 0 0 0 0.0901961 0 0 0 0 0.168627 0 0 0 0 0.301961 0 0 0 0.04 0"/>
<feBlend mode="normal" in2="effect1_dropShadow_274_31419" result="effect2_dropShadow_274_31419"/>
<feBlend mode="normal" in="SourceGraphic" in2="effect2_dropShadow_274_31419" result="shape"/>
</filter>
<filter id="filter5_dd_274_31419" x="373.251" y="31.7145" width="54.4984" height="62.7457" filterUnits="userSpaceOnUse" color-interpolation-filters="sRGB">
<feFlood flood-opacity="0" result="BackgroundImageFix"/>
<feColorMatrix in="SourceAlpha" type="matrix" values="0 0 0 0 0 0 0 0 0 0 0 0 0 0 0 0 0 0 127 0" result="hardAlpha"/>
<feOffset dy="3"/>
<feGaussianBlur stdDeviation="0.9"/>
<feColorMatrix type="matrix" values="0 0 0 0 0.0901961 0 0 0 0 0.168627 0 0 0 0 0.301961 0 0 0 0.08 0"/>
<feBlend mode="normal" in2="BackgroundImageFix" result="effect1_dropShadow_274_31419"/>
<feColorMatrix in="SourceAlpha" type="matrix" values="0 0 0 0 0 0 0 0 0 0 0 0 0 0 0 0 0 0 127 0" result="hardAlpha"/>
<feOffset dy="1.8"/>
<feGaussianBlur stdDeviation="0.6"/>
<feColorMatrix type="matrix" values="0 0 0 0 0.0901961 0 0 0 0 0.168627 0 0 0 0 0.301961 0 0 0 0.04 0"/>
<feBlend mode="normal" in2="effect1_dropShadow_274_31419" result="effect2_dropShadow_274_31419"/>
<feBlend mode="normal" in="SourceGraphic" in2="effect2_dropShadow_274_31419" result="shape"/>
</filter>
<linearGradient id="paint0_linear_274_31419" x1="14.0508" y1="58.3679" x2="64.9515" y2="58.3679" gradientUnits="userSpaceOnUse">
<stop stop-color="#B4C5CD"/>
<stop offset="0.718232" stop-color="#6C8A98"/>
<stop offset="1" stop-color="#6B8692"/>
</linearGradient>
<linearGradient id="paint1_linear_274_31419" x1="56.3534" y1="47.2537" x2="20.6793" y2="68.3388" gradientUnits="userSpaceOnUse">
<stop stop-color="#648697"/>
<stop offset="1" stop-color="#B8CCD5"/>
</linearGradient>
<radialGradient id="paint2_radial_274_31419" cx="0" cy="0" r="1" gradientUnits="userSpaceOnUse" gradientTransform="translate(25.2313 80.9435) rotate(-128.121) scale(18.1111 15.4291)">
<stop stop-color="white"/>
<stop offset="1" stop-color="white" stop-opacity="0"/>
</radialGradient>
<linearGradient id="paint3_linear_274_31419" x1="14.0508" y1="46.5855" x2="64.9515" y2="46.5855" gradientUnits="userSpaceOnUse">
<stop stop-color="#183C56"/>
<stop offset="0.286458" stop-color="#335D7B"/>
<stop offset="1" stop-color="#082133"/>
</linearGradient>
<linearGradient id="paint4_linear_274_31419" x1="14.0508" y1="42.9266" x2="64.9515" y2="42.9266" gradientUnits="userSpaceOnUse">
<stop stop-color="#183C56"/>
<stop offset="0.286458" stop-color="#335D7B"/>
<stop offset="1" stop-color="#082133"/>
</linearGradient>
<linearGradient id="paint5_linear_274_31419" x1="14.0508" y1="44.1851" x2="64.9515" y2="44.1851" gradientUnits="userSpaceOnUse">
<stop stop-color="#B4C5CD"/>
<stop offset="0.718232" stop-color="#6C8A98"/>
<stop offset="1" stop-color="#6B8692"/>
</linearGradient>
<linearGradient id="paint6_linear_274_31419" x1="56.3534" y1="33.0713" x2="20.6793" y2="54.1564" gradientUnits="userSpaceOnUse">
<stop stop-color="#648697"/>
<stop offset="1" stop-color="#B8CCD5"/>
</linearGradient>
<radialGradient id="paint7_radial_274_31419" cx="0" cy="0" r="1" gradientUnits="userSpaceOnUse" gradientTransform="translate(25.2313 66.7611) rotate(-128.121) scale(18.1111 15.4291)">
<stop stop-color="white"/>
<stop offset="1" stop-color="white" stop-opacity="0"/>
</radialGradient>
<linearGradient id="paint8_linear_274_31419" x1="14.0508" y1="32.4031" x2="64.9515" y2="32.4031" gradientUnits="userSpaceOnUse">
<stop stop-color="#183C56"/>
<stop offset="0.286458" stop-color="#335D7B"/>
<stop offset="1" stop-color="#082133"/>
</linearGradient>
<linearGradient id="paint9_linear_274_31419" x1="14.0508" y1="28.7438" x2="64.9515" y2="28.7438" gradientUnits="userSpaceOnUse">
<stop stop-color="#183C56"/>
<stop offset="0.286458" stop-color="#335D7B"/>
<stop offset="1" stop-color="#082133"/>
</linearGradient>
<linearGradient id="paint10_linear_274_31419" x1="14.0508" y1="30.2406" x2="64.9515" y2="30.2406" gradientUnits="userSpaceOnUse">
<stop stop-color="#B4C5CD"/>
<stop offset="0.718232" stop-color="#6C8A98"/>
<stop offset="1" stop-color="#6B8692"/>
</linearGradient>
<linearGradient id="paint11_linear_274_31419" x1="56.6974" y1="34.267" x2="30.5292" y2="58.5071" gradientUnits="userSpaceOnUse">
<stop stop-color="#B9CAD2"/>
<stop offset="1" stop-color="#DBE6EB"/>
</linearGradient>
<radialGradient id="paint12_radial_274_31419" cx="0" cy="0" r="1" gradientUnits="userSpaceOnUse" gradientTransform="translate(21.4064 52.0074) rotate(-39.0336) scale(23.4841 66.4054)">
<stop stop-color="white"/>
<stop offset="1" stop-color="white" stop-opacity="0"/>
</radialGradient>
<linearGradient id="paint13_linear_274_31419" x1="375.137" y1="67.3107" x2="425.83" y2="67.3107" gradientUnits="userSpaceOnUse">
<stop stop-color="#B4C5CD"/>
<stop offset="0.718232" stop-color="#6C8A98"/>
<stop offset="1" stop-color="#6B8692"/>
</linearGradient>
<linearGradient id="paint14_linear_274_31419" x1="417.267" y1="58.0872" x2="391.542" y2="81.9932" gradientUnits="userSpaceOnUse">
<stop stop-color="#648697"/>
<stop offset="1" stop-color="#B8CCD5"/>
</linearGradient>
<radialGradient id="paint15_radial_274_31419" cx="0" cy="0" r="1" gradientUnits="userSpaceOnUse" gradientTransform="translate(386.272 79.4274) rotate(-140.974) scale(14.3333 12.2991)">
<stop stop-color="white"/>
<stop offset="1" stop-color="white" stop-opacity="0"/>
</radialGradient>
<linearGradient id="paint16_linear_274_31419" x1="376.418" y1="60.9748" x2="424.545" y2="60.9748" gradientUnits="userSpaceOnUse">
<stop stop-color="#183C56"/>
<stop offset="0.286458" stop-color="#335D7B"/>
<stop offset="1" stop-color="#082133"/>
</linearGradient>
<linearGradient id="paint17_linear_274_31419" x1="376.418" y1="58.3377" x2="424.545" y2="58.3377" gradientUnits="userSpaceOnUse">
<stop stop-color="#183C56"/>
<stop offset="0.286458" stop-color="#335D7B"/>
<stop offset="1" stop-color="#082133"/>
</linearGradient>
<linearGradient id="paint18_linear_274_31419" x1="375.137" y1="55.3586" x2="425.83" y2="55.3586" gradientUnits="userSpaceOnUse">
<stop stop-color="#B4C5CD"/>
<stop offset="0.718232" stop-color="#6C8A98"/>
<stop offset="1" stop-color="#6B8692"/>
</linearGradient>
<linearGradient id="paint19_linear_274_31419" x1="417.267" y1="42.4482" x2="389.908" y2="66.1777" gradientUnits="userSpaceOnUse">
<stop stop-color="#648697"/>
<stop offset="1" stop-color="#B8CCD5"/>
</linearGradient>
<radialGradient id="paint20_radial_274_31419" cx="0" cy="0" r="1" gradientUnits="userSpaceOnUse" gradientTransform="translate(386.272 65.3127) rotate(-139.028) scale(14.7478 12.8073)">
<stop stop-color="white"/>
<stop offset="1" stop-color="white" stop-opacity="0"/>
</radialGradient>
<linearGradient id="paint21_linear_274_31419" x1="376.418" y1="46.1129" x2="424.545" y2="46.1129" gradientUnits="userSpaceOnUse">
<stop stop-color="#183C56"/>
<stop offset="0.286458" stop-color="#335D7B"/>
<stop offset="1" stop-color="#082133"/>
</linearGradient>
<linearGradient id="paint22_linear_274_31419" x1="376.418" y1="43.1826" x2="424.545" y2="43.1826" gradientUnits="userSpaceOnUse">
<stop stop-color="#183C56"/>
<stop offset="0.286458" stop-color="#335D7B"/>
<stop offset="1" stop-color="#082133"/>
</linearGradient>
<linearGradient id="paint23_linear_274_31419" x1="375.137" y1="40.6175" x2="425.83" y2="40.6175" gradientUnits="userSpaceOnUse">
<stop stop-color="#B4C5CD"/>
<stop offset="0.718232" stop-color="#6C8A98"/>
<stop offset="1" stop-color="#6B8692"/>
</linearGradient>
<linearGradient id="paint24_linear_274_31419" x1="417.61" y1="34.0821" x2="395.321" y2="58.2178" gradientUnits="userSpaceOnUse">
<stop stop-color="#B9CAD2"/>
<stop offset="1" stop-color="#DBE6EB"/>
</linearGradient>
<radialGradient id="paint25_radial_274_31419" cx="0" cy="0" r="1" gradientUnits="userSpaceOnUse" gradientTransform="translate(382.462 49.1961) rotate(-34.7432) scale(22.1095 59.8474)">
<stop stop-color="white"/>
<stop offset="1" stop-color="white" stop-opacity="0"/>
</radialGradient>
</defs>
</svg>
